<svg xmlns="http://www.w3.org/2000/svg" xmlns:xlink="http://www.w3.org/1999/xlink" width="1920" zoomAndPan="magnify" viewBox="0 0 1440 809.999993" height="1080" preserveAspectRatio="xMidYMid meet" version="1.0"><defs><clipPath id="9d5817e7b5"><path d="M 289.269531 135.015625 L 1122.378906 135.015625 L 1122.378906 792.519531 L 289.269531 792.519531 Z M 289.269531 135.015625 " clip-rule="nonzero"/></clipPath><clipPath id="7ac4c7ba02"><path d="M 294.269531 143.347656 L 1122 143.347656 L 1122 792.519531 L 294.269531 792.519531 Z M 294.269531 143.347656 " clip-rule="nonzero"/></clipPath><clipPath id="b83b112755"><path d="M 344 36.675781 L 1067 36.675781 L 1067 763 L 344 763 Z M 344 36.675781 " clip-rule="nonzero"/></clipPath></defs><g clip-path="url(#9d5817e7b5)"><path fill="#f7c7ad" d="M 1065.496094 414.554688 L 842.214844 414.554688 L 842.214844 284.355469 L 1065.496094 284.355469 Z M 1087.558594 526.941406 C 1087.1875 526.257812 1086.804688 525.582031 1086.417969 524.898438 C 1075.621094 505.710938 1061.789062 489.144531 1044.101562 477 C 966.359375 423.65625 915.875 448.210938 877.050781 436.953125 C 876.464844 436.777344 875.882812 436.59375 875.304688 436.414062 C 860.535156 431.667969 847.453125 421.410156 835.171875 399.1875 C 802.992188 340.957031 785.128906 267.6875 735.660156 235.054688 C 734.699219 234.414062 733.714844 233.804688 732.726562 233.199219 C 713.875 221.664062 690.542969 215.886719 660.355469 218.738281 C 547.367188 229.398438 512.257812 430.855469 427.984375 442.894531 C 342.890625 455.046875 307.625 572.25 295.15625 677.949219 C 294.984375 679.355469 294.824219 680.753906 294.667969 682.160156 C 290.039062 723.230469 288.816406 762.320312 289.40625 792.519531 L 1116.582031 792.519531 C 1116.582031 792.519531 1120.347656 767.441406 1121.808594 730.988281 C 1121.832031 730.371094 1121.859375 729.769531 1121.886719 729.152344 C 1124.039062 671.636719 1120.304688 586.914062 1087.558594 526.941406 Z M 998.996094 161.082031 L 947.773438 135.511719 L 923.890625 196.15625 L 964.875 216.621094 Z M 896.25 197.375 L 902.53125 172.53125 L 802.863281 188.320312 L 816.519531 210.007812 Z M 669.597656 147.03125 C 672.96875 147.914062 689.488281 144.113281 689.488281 144.113281 C 689.488281 144.113281 678.398438 137.382812 673.5625 141.734375 C 673.5625 141.734375 666.21875 146.140625 669.597656 147.03125 " fill-opacity="1" fill-rule="nonzero"/></g><path fill="#700300" d="M 753.3125 131.078125 C 746.589844 113.503906 724.363281 107.902344 714.539062 108.636719 C 704.71875 109.371094 680.421875 112.46875 673.183594 135.730469 C 673.183594 135.730469 672 138.105469 673.5625 141.734375 C 673.628906 141.679688 673.699219 141.648438 673.757812 141.597656 C 674.011719 141.386719 674.265625 141.191406 674.542969 141.042969 C 674.628906 140.996094 674.71875 140.972656 674.804688 140.933594 C 675.085938 140.800781 675.363281 140.671875 675.65625 140.585938 C 675.714844 140.566406 675.773438 140.5625 675.828125 140.546875 C 676.164062 140.457031 676.511719 140.378906 676.867188 140.339844 C 676.894531 140.332031 676.914062 140.332031 676.941406 140.332031 C 677.332031 140.289062 677.742188 140.269531 678.152344 140.273438 C 683.300781 140.367188 689.488281 144.113281 689.488281 144.113281 C 689.488281 144.113281 685.179688 145.105469 680.511719 145.957031 C 681.230469 148.300781 681.730469 151.175781 681.4375 154.671875 C 680.878906 161.480469 676.355469 167.585938 676.007812 172.824219 C 675.664062 178.058594 679.738281 186.003906 684.777344 188.328125 C 688.238281 189.929688 698.660156 190.332031 704.855469 190.4375 C 704.875 190.441406 704.886719 190.457031 704.90625 190.460938 C 709.640625 192.851562 738.082031 189.234375 748.054688 187.871094 C 750.03125 187.597656 751.503906 185.914062 751.503906 183.914062 L 751.503906 177.863281 C 751.503906 177.863281 760.03125 148.65625 753.3125 131.078125 Z M 704.953125 246.074219 C 704.953125 246.074219 705.414062 240.117188 711.753906 237.636719 C 718.09375 235.144531 725.027344 235.503906 725.027344 235.503906 C 725.027344 235.503906 726.621094 239.035156 719.519531 240.734375 C 712.414062 242.429688 711.753906 242.785156 711.753906 242.785156 L 722.804688 242.078125 C 722.804688 242.078125 722.183594 245.980469 719.160156 246.515625 C 716.140625 247.050781 712.144531 246.515625 712.144531 246.515625 L 718.984375 248.207031 C 718.984375 248.207031 716.234375 250.695312 713.03125 250.511719 C 709.835938 250.335938 704.503906 250.523438 704.503906 250.523438 Z M 948.207031 77.679688 L 906.4375 58.175781 L 877.816406 130.765625 L 910.925781 146.230469 Z M 974.621094 145.820312 C 979.074219 148.046875 984.488281 146.238281 986.707031 141.785156 C 988.933594 137.332031 987.125 131.925781 982.671875 129.699219 C 978.21875 127.476562 972.804688 129.28125 970.585938 133.734375 C 968.367188 138.183594 970.167969 143.601562 974.621094 145.820312 Z M 962.085938 215.226562 L 994.6875 158.941406 L 987.800781 155.503906 L 955.199219 211.792969 Z M 943.839844 206.117188 L 950.726562 209.554688 L 983.324219 153.265625 L 976.4375 149.828125 Z M 852.425781 178.734375 C 857.921875 177.863281 861.664062 172.707031 860.796875 167.214844 C 859.925781 161.726562 854.769531 157.984375 849.28125 158.855469 C 843.789062 159.722656 840.046875 164.878906 840.917969 170.371094 C 841.785156 175.855469 846.941406 179.601562 852.425781 178.734375 Z M 885.609375 199.0625 L 889.148438 174.660156 L 881.546875 175.863281 L 878.011719 200.265625 Z M 876.605469 176.644531 L 869.003906 177.847656 L 865.46875 202.25 L 873.070312 201.046875 Z M 930.582031 352.582031 C 928.910156 352.582031 927.574219 353.902344 927.5625 355.5625 C 927.554688 357.226562 928.898438 358.582031 930.542969 358.582031 C 932.214844 358.574219 933.542969 357.265625 933.5625 355.601562 C 933.578125 353.949219 932.230469 352.582031 930.582031 352.582031 Z M 1066.621094 290.050781 L 1054.195312 290.050781 L 1054.195312 302.476562 L 1066.621094 302.476562 Z M 979.3125 359.644531 C 980.84375 359.664062 982.222656 358.453125 982.273438 357 C 980.320312 357 978.371094 357 976.421875 357 C 976.449219 358.40625 977.796875 359.628906 979.3125 359.644531 Z M 993.210938 351.746094 C 993.203125 351.195312 993.09375 350.652344 992.921875 350.128906 C 991.75 346.457031 989.832031 343.324219 986.453125 341.261719 C 986.402344 341.234375 986.363281 341.183594 986.285156 341.117188 C 986.445312 340.902344 986.597656 340.726562 986.71875 340.539062 C 988.023438 338.621094 987.203125 336.113281 984.949219 335.105469 C 984.253906 334.792969 983.523438 334.648438 982.769531 334.648438 C 977.375 334.648438 971.976562 334.65625 966.589844 334.65625 C 965.226562 334.65625 964.03125 335.074219 963.066406 336.0625 C 961.648438 337.511719 961.675781 339.695312 963.125 341.113281 C 963.328125 341.3125 963.554688 341.496094 963.769531 341.679688 C 963.785156 341.839844 963.667969 341.898438 963.589844 341.992188 C 962.578125 343.125 962.070312 344.445312 962.078125 345.960938 C 962.078125 347.199219 962.089844 348.441406 962.070312 349.679688 C 962.050781 351.0625 962.097656 352.429688 962.867188 353.636719 C 962.753906 353.796875 962.617188 353.753906 962.507812 353.753906 C 962.019531 353.757812 961.523438 353.726562 961.042969 353.765625 C 960.488281 353.804688 960.105469 353.726562 959.804688 353.140625 C 959.410156 352.378906 958.660156 351.976562 957.800781 351.960938 C 955.261719 351.9375 952.726562 351.949219 950.1875 351.957031 C 949.652344 351.960938 949.191406 352.214844 948.691406 352.515625 C 948.183594 351.597656 947.6875 350.691406 947.207031 349.816406 C 947.277344 349.644531 947.40625 349.621094 947.511719 349.554688 C 948.378906 348.996094 948.820312 348.003906 948.535156 347.015625 C 947.753906 344.328125 946.945312 341.652344 946.136719 338.976562 C 946.007812 338.542969 945.746094 338.171875 945.363281 337.921875 C 945.058594 337.726562 945.019531 337.558594 945.167969 337.226562 C 946.320312 334.695312 947.445312 332.148438 948.585938 329.613281 C 948.800781 329.128906 949.035156 328.65625 949.085938 328.03125 C 949.746094 328.382812 950.328125 328.6875 950.921875 329 C 951.242188 329.175781 951.558594 329.359375 951.890625 329.515625 C 952.53125 329.800781 953.238281 329.558594 953.550781 328.96875 C 953.863281 328.367188 953.6875 327.632812 953.082031 327.289062 C 952.261719 326.8125 951.421875 326.382812 950.582031 325.949219 C 950.335938 325.824219 950.230469 325.6875 950.238281 325.382812 C 950.285156 324.351562 949.699219 323.472656 948.78125 323.117188 C 947.832031 322.746094 946.828125 323.003906 946.125 323.804688 C 946.058594 323.878906 946.019531 324 945.859375 323.988281 C 945.765625 323.429688 945.648438 322.863281 945.382812 322.347656 C 944.597656 320.800781 942.910156 319.863281 941.183594 320.023438 C 940.761719 320.0625 940.597656 320.265625 940.597656 320.792969 C 940.59375 322.289062 940.597656 323.785156 940.597656 325.285156 C 940.597656 326.121094 940.59375 326.960938 940.597656 327.800781 C 940.605469 328.386719 940.789062 328.550781 941.375 328.570312 C 941.945312 328.582031 942.5 328.503906 943.039062 328.308594 C 943.171875 328.511719 943.019531 328.648438 942.960938 328.785156 C 941.511719 332.050781 940.039062 335.3125 938.601562 338.582031 C 938.417969 339.003906 938.199219 339.167969 937.75 339.109375 C 937.429688 339.070312 937.105469 339.101562 936.785156 339.082031 C 934.691406 338.933594 933.617188 340.714844 933.597656 342.171875 C 933.597656 342.445312 933.597656 342.714844 933.597656 343.050781 C 932.90625 342.882812 932.234375 342.777344 931.550781 342.726562 C 928.109375 342.464844 925.082031 343.382812 922.617188 345.882812 C 922.304688 346.203125 922.023438 346.546875 921.835938 346.949219 C 921.464844 347.726562 921.632812 348.375 922.335938 348.871094 C 922.746094 349.164062 923.226562 349.328125 923.703125 349.488281 C 920.90625 353.238281 920.546875 357.089844 923.234375 360.96875 C 925.371094 364.042969 929.15625 365.410156 932.808594 364.394531 C 937.203125 363.171875 939.382812 360.066406 939.746094 355.523438 C 940.527344 355.886719 941.347656 355.964844 942.285156 355.816406 C 941.300781 352.230469 940.261719 348.703125 938.132812 345.601562 C 938.90625 345.375 939.136719 345.472656 939.507812 346.15625 C 941.613281 349.996094 943.722656 353.84375 945.839844 357.683594 C 946.367188 358.640625 947.210938 359.089844 948.292969 359.089844 C 952.511719 359.097656 956.726562 359.097656 960.945312 359.097656 C 962.613281 359.097656 964.273438 359.097656 965.9375 359.089844 C 967.257812 359.089844 968.152344 358.484375 968.625 357.265625 C 968.71875 357.027344 968.828125 356.941406 969.082031 356.941406 C 970.160156 356.933594 970.160156 356.929688 970.316406 358.003906 C 970.957031 362.441406 974.898438 365.8125 979.398438 365.761719 C 983.992188 365.707031 987.871094 362.292969 988.355469 357.792969 C 988.433594 357.066406 988.6875 356.804688 989.367188 356.617188 C 991.628906 355.996094 993.234375 353.894531 993.210938 351.746094 Z M 1054.195312 302.476562 L 1054.195312 314.902344 L 1066.621094 314.902344 L 1066.621094 389.171875 L 1054.195312 389.171875 L 1054.195312 376.746094 L 1041.769531 376.746094 L 1041.769531 389.171875 L 1029.34375 389.171875 L 1029.34375 376.746094 L 1016.921875 376.746094 L 1016.921875 389.171875 L 1004.496094 389.171875 L 1004.496094 376.746094 L 992.070312 376.746094 L 992.070312 389.171875 L 979.644531 389.171875 L 979.644531 376.746094 L 967.21875 376.746094 L 967.21875 389.171875 L 954.796875 389.171875 L 954.796875 376.746094 L 942.371094 376.746094 L 942.371094 389.171875 L 929.945312 389.171875 L 929.945312 376.746094 L 917.519531 376.746094 L 917.519531 389.171875 L 905.09375 389.171875 L 905.09375 376.746094 L 892.667969 376.746094 L 892.667969 389.171875 L 880.246094 389.171875 L 880.246094 376.746094 L 867.820312 376.746094 L 867.820312 389.171875 L 855.394531 389.171875 L 855.394531 376.746094 L 842.96875 376.746094 L 842.96875 302.476562 L 855.394531 302.476562 L 855.394531 314.902344 L 867.820312 314.902344 L 867.820312 302.476562 L 880.246094 302.476562 L 880.246094 314.902344 L 892.667969 314.902344 L 892.667969 302.476562 L 905.09375 302.476562 L 905.09375 314.902344 L 917.519531 314.902344 L 917.519531 302.476562 L 929.945312 302.476562 L 929.945312 314.902344 L 942.371094 314.902344 L 942.371094 302.476562 L 954.796875 302.476562 L 954.796875 314.902344 L 967.21875 314.902344 L 967.21875 302.476562 L 979.644531 302.476562 L 979.644531 314.902344 L 992.070312 314.902344 L 992.070312 302.476562 L 1004.496094 302.476562 L 1004.496094 314.902344 L 1016.921875 314.902344 L 1016.921875 302.476562 L 1029.34375 302.476562 L 1029.34375 314.902344 L 1041.769531 314.902344 L 1041.769531 302.476562 Z M 867.820312 290.050781 L 855.394531 290.050781 L 855.394531 302.476562 L 867.820312 302.476562 Z M 942.371094 401.605469 L 954.796875 401.605469 L 954.796875 389.171875 L 942.371094 389.171875 Z M 917.519531 401.605469 L 929.945312 401.605469 L 929.945312 389.171875 L 917.519531 389.171875 Z M 892.667969 401.605469 L 905.09375 401.605469 L 905.09375 389.171875 L 892.667969 389.171875 Z M 967.21875 401.605469 L 979.644531 401.605469 L 979.644531 389.171875 L 967.21875 389.171875 Z M 867.820312 401.605469 L 880.246094 401.605469 L 880.246094 389.171875 L 867.820312 389.171875 Z M 1041.769531 401.605469 L 1054.195312 401.605469 L 1054.195312 389.171875 L 1041.769531 389.171875 Z M 992.070312 401.605469 L 1004.496094 401.605469 L 1004.496094 389.171875 L 992.070312 389.171875 Z M 1016.921875 401.605469 L 1029.34375 401.605469 L 1029.34375 389.171875 L 1016.921875 389.171875 Z M 917.519531 290.050781 L 905.09375 290.050781 L 905.09375 302.476562 L 917.519531 302.476562 Z M 967.21875 290.050781 L 954.796875 290.050781 L 954.796875 302.476562 L 967.21875 302.476562 Z M 992.070312 290.050781 L 979.644531 290.050781 L 979.644531 302.476562 L 992.070312 302.476562 Z M 942.371094 290.050781 L 929.945312 290.050781 L 929.945312 302.476562 L 942.371094 302.476562 Z M 1016.921875 290.050781 L 1004.496094 290.050781 L 1004.496094 302.476562 L 1016.921875 302.476562 Z M 842.96875 401.605469 L 855.394531 401.605469 L 855.394531 389.171875 L 842.96875 389.171875 Z M 1041.769531 290.050781 L 1029.34375 290.050781 L 1029.34375 302.476562 L 1041.769531 302.476562 Z M 892.667969 290.050781 L 880.246094 290.050781 L 880.246094 302.476562 L 892.667969 302.476562 Z M 584.652344 367.382812 C 588.519531 367.382812 655.695312 359.644531 700.59375 349.699219 C 704.640625 348.800781 709.691406 344.140625 715.160156 337.160156 C 719.558594 365.257812 723.269531 397.269531 723.269531 397.269531 C 723.269531 397.269531 791.796875 399.773438 826.25 390.332031 C 826.25 390.332031 786.078125 197.542969 740.59375 197.542969 C 709.066406 197.542969 703.203125 209.421875 702.363281 222.128906 C 700.332031 224.691406 698.585938 227.570312 697.242188 230.769531 C 695.007812 236.054688 693.128906 242.371094 691.800781 249.894531 C 683.273438 298.214844 671.464844 305.007812 671.464844 305.007812 L 579.042969 335.171875 C 579.042969 335.171875 580.78125 367.382812 584.652344 367.382812 Z M 924.007812 671.6875 C 902.632812 671.6875 885.316406 689.015625 885.316406 710.386719 C 885.316406 731.757812 902.632812 749.082031 924.007812 749.082031 C 945.375 749.082031 962.703125 731.757812 962.703125 710.386719 C 962.703125 689.015625 945.375 671.6875 924.007812 671.6875 Z M 1005.101562 473.03125 C 1010.039062 466.496094 1006.257812 457.050781 998.167969 455.730469 C 965.917969 450.445312 899.667969 440.585938 885.515625 446.164062 C 866.640625 453.59375 851.777344 486.761719 851.777344 486.761719 C 851.777344 486.761719 780.855469 482.1875 747.117188 525.652344 C 747.117188 525.652344 709.945312 534.804688 688.785156 529.089844 C 688.785156 529.089844 683.636719 545.867188 688.785156 554.0625 C 693.925781 562.257812 703.078125 569.117188 701.933594 579.988281 C 700.792969 590.851562 684.398438 591.996094 682.304688 610.292969 C 680.207031 628.59375 682.304688 667.292969 682.304688 667.292969 C 682.304688 667.292969 601.855469 672.632812 570.972656 653.183594 C 540.089844 633.742188 513.402344 630.3125 513.019531 584.554688 C 512.660156 541.226562 549.570312 453.789062 553.476562 444.664062 L 556.085938 447.253906 L 559.035156 433.097656 C 563.65625 416.917969 566.007812 400.179688 566.007812 383.347656 L 566.007812 326.527344 C 566.007812 325.40625 565.816406 324.292969 565.453125 323.238281 L 561.484375 311.777344 C 560.082031 307.722656 556.261719 305.007812 551.980469 305.007812 L 539.085938 305.007812 C 536.535156 305.007812 534.085938 305.980469 532.226562 307.714844 C 530.410156 309.410156 528.027344 310.371094 525.542969 310.417969 L 515.726562 310.59375 C 511.464844 310.671875 508.054688 314.148438 508.054688 318.402344 L 508.054688 371.15625 C 508.054688 375.472656 511.546875 378.972656 515.863281 378.972656 L 527.878906 378.972656 L 527.878906 412.988281 L 517.21875 412.988281 C 517.21875 412.988281 472.035156 441.585938 450.875 499.917969 C 446.429688 512.1875 444.738281 525.976562 445.152344 540.367188 C 404.617188 528.347656 364.921875 532.871094 346.753906 584.339844 C 344.453125 590.863281 346.832031 598.140625 352.507812 602.101562 C 363.457031 609.765625 383.261719 623.015625 406.636719 635.949219 C 429.753906 648.730469 465.207031 654.851562 487.484375 657.589844 C 494.347656 666.667969 501.53125 674.1875 508.640625 679.492188 C 546.957031 708.089844 573.726562 718.359375 641.78125 711.496094 C 709.835938 704.632812 800.296875 672.632812 819.175781 660.050781 C 838.050781 647.46875 835.757812 630.3125 835.757812 630.3125 C 835.757812 630.3125 886.65625 603.429688 940.988281 615.441406 C 995.316406 627.449219 1007.328125 634.886719 1019.335938 626.882812 C 1031.351562 618.871094 980.445312 505.636719 980.445312 505.636719 Z M 436.742188 710.386719 C 436.742188 731.535156 419.601562 748.679688 398.453125 748.679688 C 377.308594 748.679688 360.164062 731.535156 360.164062 710.386719 C 360.164062 689.234375 377.308594 672.089844 398.453125 672.089844 C 419.601562 672.089844 436.742188 689.234375 436.742188 710.386719 " fill-opacity="1" fill-rule="nonzero"/><g clip-path="url(#7ac4c7ba02)"><path fill="#f6836b" d="M 469.066406 463.441406 C 469.605469 462.601562 470.148438 461.777344 470.691406 460.964844 C 470.316406 461.09375 469.953125 461.238281 469.574219 461.367188 C 418.277344 479.023438 398.480469 509.382812 389.417969 537.960938 C 390.121094 537.738281 390.820312 537.511719 391.527344 537.308594 C 400.601562 509.695312 420.101562 480.632812 469.066406 463.441406 Z M 337.402344 637.359375 C 347.710938 628.371094 357.742188 619.625 365.714844 611.078125 C 365.207031 610.742188 364.710938 610.414062 364.21875 610.082031 C 356.34375 618.484375 346.429688 627.136719 336.238281 636.019531 C 320.453125 649.773438 304.285156 663.871094 295.15625 677.949219 C 294.984375 679.355469 294.824219 680.753906 294.667969 682.160156 C 303.101562 667.261719 320.480469 652.109375 337.402344 637.359375 Z M 641.246094 290.46875 C 655.746094 263.195312 675.050781 248.902344 693.574219 241.699219 C 693.769531 240.976562 693.960938 240.261719 694.160156 239.558594 C 674.929688 246.730469 654.746094 261.296875 639.679688 289.636719 C 633.890625 300.519531 628.074219 311.003906 622.164062 321.097656 L 624.707031 320.265625 C 630.285156 310.683594 635.777344 300.746094 641.246094 290.46875 Z M 588.839844 371.496094 C 581.335938 381.367188 573.511719 390.628906 565.277344 399.265625 C 565.191406 400.21875 565.128906 401.167969 565.023438 402.113281 C 573.71875 393.136719 581.945312 383.464844 589.835938 373.136719 C 589.496094 372.804688 589.164062 372.242188 588.839844 371.496094 Z M 672.859375 581.433594 C 667.554688 580.78125 662.414062 580.207031 657.386719 579.6875 C 657.207031 580.265625 657.023438 580.839844 656.839844 581.414062 C 661.964844 581.945312 667.222656 582.53125 672.644531 583.195312 C 682.074219 584.347656 691.5 584.445312 700.886719 583.566406 C 701.179688 582.980469 701.414062 582.363281 701.589844 581.710938 C 692.273438 582.664062 682.695312 582.628906 672.859375 581.433594 Z M 591.183594 576.21875 C 572.558594 576.453125 556.691406 577.941406 542.914062 580.4375 C 542.960938 581.035156 543.011719 581.652344 543.058594 582.238281 C 556.789062 579.738281 572.597656 578.242188 591.183594 578 C 591.183594 577.410156 591.183594 576.816406 591.183594 576.21875 Z M 306.71875 775.574219 C 309.773438 765.503906 317.882812 756.527344 330.835938 748.800781 C 330.546875 748.292969 330.242188 747.785156 329.964844 747.261719 C 316.582031 755.238281 308.191406 764.566406 305.007812 775.089844 C 302.894531 782.113281 303.53125 788.226562 304.636719 792.519531 L 306.503906 792.519531 C 305.394531 788.433594 304.644531 782.414062 306.71875 775.574219 Z M 986.363281 663.890625 C 986.714844 664.367188 987.046875 664.855469 987.390625 665.339844 C 1020.285156 644.246094 1044.09375 612.582031 1059.78125 585.851562 C 1072.835938 563.589844 1081.929688 542.09375 1087.558594 526.941406 C 1087.1875 526.257812 1086.804688 525.582031 1086.417969 524.898438 C 1080.867188 540.035156 1071.644531 562.109375 1058.222656 584.984375 C 1042.640625 611.535156 1018.996094 642.992188 986.363281 663.890625 Z M 529.960938 766.804688 C 546.449219 744.214844 570.023438 747.707031 599.871094 752.121094 C 636.027344 757.472656 681.015625 764.125 736.515625 731.308594 C 737.875 730.507812 739.1875 729.746094 740.511719 728.976562 L 736.996094 728.976562 C 736.527344 729.25 736.085938 729.503906 735.617188 729.785156 C 680.65625 762.273438 636.007812 755.667969 600.132812 750.363281 C 569.691406 745.859375 545.648438 742.300781 528.53125 765.757812 C 519.929688 777.542969 510.863281 786.199219 501.816406 792.519531 L 504.875 792.519531 C 513.441406 786.214844 521.917969 777.835938 529.960938 766.804688 Z M 847.746094 695.058594 C 847.871094 694.46875 848.007812 693.875 848.136719 693.289062 C 842.261719 693.25 836.714844 693.257812 831.167969 693.53125 L 831.167969 695.3125 C 836.597656 695.039062 842.011719 695.035156 847.746094 695.058594 Z M 1084.34375 719.714844 C 1066.152344 711.363281 1045.53125 701.902344 1016.191406 709.527344 C 1011.167969 710.832031 1006.351562 712.417969 1001.691406 714.207031 C 1001.65625 714.867188 1001.597656 715.515625 1001.546875 716.167969 C 1006.394531 714.28125 1011.40625 712.609375 1016.640625 711.246094 C 1045.363281 703.777344 1065.683594 713.101562 1083.601562 721.328125 C 1096.890625 727.433594 1108.71875 732.855469 1121.808594 730.988281 C 1121.832031 730.371094 1121.859375 729.769531 1121.886719 729.152344 C 1109.117188 731.074219 1097.464844 725.734375 1084.34375 719.714844 Z M 865.339844 762.445312 C 865.679688 762.496094 866.011719 762.535156 866.347656 762.582031 C 865.75 761.921875 865.171875 761.242188 864.597656 760.5625 C 824.589844 755.039062 774.296875 775.46875 740.75 792.519531 L 744.6875 792.519531 C 778.234375 775.78125 826.820312 756.683594 865.339844 762.445312 Z M 694.976562 172.855469 C 698.410156 166.808594 704.4375 150.628906 698.730469 146.496094 C 696.714844 145.039062 693.191406 144.367188 689.480469 144.113281 L 689.488281 144.113281 C 689.488281 144.113281 689.070312 143.867188 688.375 143.496094 C 686.265625 147.304688 685.101562 151.710938 685.257812 156.390625 C 685.257812 156.507812 685.265625 156.625 685.269531 156.742188 C 685.304688 157.730469 685.304688 158.726562 685.296875 159.714844 C 683.175781 161.835938 678.96875 166.574219 681.046875 169.054688 C 682.5 170.792969 683.921875 171.507812 684.945312 171.820312 C 684.957031 176.800781 685.539062 181.234375 688.136719 184.480469 C 691.039062 188.113281 697.847656 189.878906 703.773438 189.832031 C 698.214844 186.453125 691.761719 178.507812 694.976562 172.855469 Z M 704.90625 190.460938 C 704.886719 190.457031 704.875 190.441406 704.855469 190.4375 C 703.917969 190.421875 702.878906 190.398438 701.777344 190.367188 C 704.203125 195.402344 705.097656 203.15625 705.773438 209.871094 C 705.773438 209.871094 705.753906 209.910156 705.734375 209.960938 C 710.09375 202.757812 719.714844 197.542969 740.59375 197.542969 C 741.136719 197.542969 741.675781 197.597656 742.214844 197.648438 C 740.4375 195.011719 739.03125 192.15625 737.992188 189.160156 C 725.546875 190.652344 708.480469 192.265625 704.90625 190.460938 Z M 904.683594 535.773438 C 862.515625 520.613281 781.164062 538.125 764.242188 570.542969 C 751.585938 594.792969 760.621094 619.320312 767.683594 632.511719 C 770.40625 637.589844 777.167969 638.753906 781.421875 634.867188 C 793.894531 623.453125 821.425781 602.316406 860.757812 594.789062 C 885.679688 590.011719 939.148438 596.765625 963.835938 600.367188 C 968.945312 601.109375 972.433594 595.375 969.4375 591.167969 C 958.054688 575.15625 934.398438 546.460938 904.683594 535.773438 Z M 533.039062 284.253906 C 533.039062 298.910156 544.925781 310.796875 559.582031 310.796875 L 559.582031 257.710938 C 544.925781 257.710938 533.039062 269.59375 533.039062 284.253906 Z M 978.722656 472.078125 C 973.75 473.738281 965.691406 496.714844 965.691406 496.714844 L 980.445312 505.636719 L 1005.101562 473.03125 C 1005.101562 473.03125 983.695312 470.425781 978.722656 472.078125 Z M 508.054688 371.15625 C 508.054688 371.976562 508.210938 372.75 508.445312 373.492188 L 505.027344 373.492188 C 502.585938 373.492188 500.898438 371.058594 501.746094 368.78125 L 506.152344 356.960938 L 497.59375 327.820312 C 497.457031 327.351562 497.386719 326.863281 497.386719 326.375 L 497.386719 323.21875 C 497.386719 320.402344 499.667969 318.109375 502.496094 318.109375 L 508.078125 318.109375 C 508.078125 318.214844 508.054688 318.304688 508.054688 318.402344 L 508.054688 371.15625 " fill-opacity="1" fill-rule="nonzero"/></g><g clip-path="url(#b83b112755)"><path fill="#d49f00" d="M 906.4375 58.175781 L 902.359375 56.273438 L 904.601562 51.476562 L 927.261719 62.058594 L 939.101562 36.703125 L 943.699219 38.851562 L 931.859375 64.203125 L 954.515625 74.785156 L 952.277344 79.582031 L 927.320312 67.925781 Z M 971.894531 134.382812 C 973.753906 130.65625 978.285156 129.136719 982.019531 131.007812 C 985.75 132.867188 987.265625 137.402344 985.40625 141.132812 C 983.542969 144.863281 979.007812 146.378906 975.269531 144.519531 C 971.542969 142.65625 970.023438 138.121094 971.894531 134.382812 Z M 948.363281 134.8125 L 999.203125 160.191406 L 1004.398438 137.457031 L 963.417969 116.992188 L 960.410156 120.554688 L 957.703125 123.753906 L 955.789062 126.019531 L 953.15625 129.144531 Z M 852.035156 176.253906 C 847.917969 176.90625 844.050781 174.09375 843.394531 169.972656 C 842.742188 165.855469 845.554688 161.988281 849.671875 161.335938 C 853.792969 160.679688 857.660156 163.492188 858.316406 167.609375 C 858.96875 171.730469 856.15625 175.597656 852.035156 176.253906 Z M 888.882812 150.84375 L 809.144531 163.476562 L 803.105469 187.382812 L 902.015625 171.710938 Z M 1054.195312 401.605469 L 1066.621094 401.605469 L 1066.621094 431.289062 C 1066.621094 441.757812 1058.140625 450.238281 1047.671875 450.238281 L 861.921875 450.238281 C 857.152344 450.238281 852.804688 448.460938 849.472656 445.550781 C 845.496094 442.082031 842.96875 436.984375 842.96875 431.289062 L 842.96875 401.605469 Z M 963.769531 341.679688 C 963.667969 341.585938 963.554688 341.488281 963.445312 341.398438 C 963.554688 341.488281 963.667969 341.585938 963.769531 341.679688 Z M 962.574219 336.691406 C 962.203125 337.292969 962.011719 337.957031 962.027344 338.613281 C 962.011719 337.957031 962.203125 337.292969 962.574219 336.691406 Z M 960.652344 353.765625 C 960.300781 353.734375 960.027344 353.578125 959.804688 353.140625 C 960.027344 353.578125 960.300781 353.734375 960.652344 353.765625 Z M 987.324219 338.242188 C 987.203125 336.953125 986.355469 335.734375 984.949219 335.105469 C 986.355469 335.734375 987.203125 336.953125 987.324219 338.242188 Z M 974.71875 364.5 C 976.105469 365.316406 977.710938 365.78125 979.398438 365.761719 C 977.710938 365.78125 976.105469 365.316406 974.71875 364.5 Z M 984.121094 364.40625 C 983.089844 365.039062 981.917969 365.472656 980.667969 365.664062 C 981.917969 365.472656 983.089844 365.039062 984.121094 364.40625 Z M 974.71875 364.5 C 972.871094 363.40625 971.417969 361.679688 970.707031 359.617188 C 971.417969 361.679688 972.871094 363.40625 974.71875 364.5 Z M 943.085938 328.53125 C 943.097656 328.464844 943.09375 328.394531 943.039062 328.308594 C 943.09375 328.394531 943.097656 328.464844 943.085938 328.53125 Z M 943.085938 328.53125 C 943.074219 328.597656 943.035156 328.65625 943 328.707031 C 943.035156 328.65625 943.074219 328.597656 943.085938 328.53125 Z M 933.0625 353.914062 C 933.382812 354.398438 933.570312 354.976562 933.5625 355.601562 C 933.570312 354.976562 933.382812 354.398438 933.0625 353.914062 Z M 932.671875 357.714844 C 933.21875 357.175781 933.550781 356.433594 933.5625 355.601562 C 933.550781 356.433594 933.21875 357.175781 932.671875 357.714844 Z M 949.085938 328.03125 C 949.046875 328.5 948.898438 328.875 948.742188 329.246094 C 948.898438 328.875 949.046875 328.5 949.085938 328.03125 Z M 948.78125 323.117188 C 949.238281 323.292969 949.613281 323.605469 949.867188 323.996094 C 949.613281 323.605469 949.238281 323.292969 948.78125 323.117188 Z M 962.3125 344.347656 C 962.167969 344.863281 962.070312 345.394531 962.078125 345.960938 C 962.070312 345.394531 962.167969 344.863281 962.3125 344.347656 Z M 942.285156 355.816406 C 942.039062 354.917969 941.789062 354.027344 941.515625 353.140625 C 941.789062 354.027344 942.039062 354.917969 942.285156 355.816406 Z M 938.132812 345.601562 C 938.375 345.53125 938.5625 345.5 938.71875 345.503906 C 938.5625 345.5 938.375 345.53125 938.132812 345.601562 Z M 938.796875 359.429688 C 939.304688 358.277344 939.628906 356.988281 939.746094 355.523438 C 939.628906 356.988281 939.304688 358.277344 938.796875 359.429688 Z M 922.128906 358.925781 C 922.414062 359.605469 922.757812 360.285156 923.234375 360.96875 C 922.757812 360.285156 922.414062 359.605469 922.128906 358.925781 Z M 1066.621094 257.738281 L 1066.621094 288.351562 L 843.859375 288.351562 L 843.859375 281.539062 C 843.859375 280.730469 843.464844 280.082031 842.96875 280.082031 L 842.96875 257.738281 C 842.96875 240.527344 851.449219 226.585938 861.921875 226.585938 L 1047.671875 226.585938 C 1058.140625 226.585938 1066.621094 240.527344 1066.621094 257.738281 Z M 398.453125 743.347656 C 380.25 743.347656 365.492188 728.585938 365.492188 710.386719 C 365.492188 692.183594 380.25 677.429688 398.453125 677.429688 C 398.792969 677.429688 399.117188 677.46875 399.457031 677.480469 C 406.003906 677.675781 412.078125 679.757812 417.128906 683.242188 C 425.75 689.191406 431.414062 699.121094 431.414062 710.386719 C 431.414062 728.585938 416.660156 743.347656 398.453125 743.347656 Z M 431.636719 669.617188 L 429.488281 645.523438 C 423.386719 643.542969 417.523438 641.296875 412.148438 638.746094 L 398.132812 662.007812 C 396.363281 661.800781 394.625 661.625 392.804688 661.625 C 367.0625 661.625 344.835938 684.230469 344.835938 709.972656 C 344.835938 735.714844 369.347656 762.132812 395.089844 762.132812 C 420.832031 762.132812 450.289062 742.191406 450.289062 716.449219 C 450.289062 699.089844 445.707031 677.644531 431.636719 669.617188 Z M 576.597656 642.894531 C 571.0625 640.777344 566.457031 638.414062 562.921875 636.027344 C 570.191406 636.800781 576.09375 638.335938 578.058594 636.105469 C 582.171875 631.445312 586.289062 614.171875 586.289062 614.171875 L 591.871094 614.171875 L 608.089844 609.28125 C 605.214844 566.574219 607.113281 434.960938 640.632812 421.390625 C 657.480469 414.570312 690.121094 405.046875 723.269531 397.269531 C 723.269531 397.269531 731.605469 397.574219 743.90625 397.570312 C 744.03125 399.421875 744.546875 401.21875 745.347656 402.90625 C 746.324219 404.988281 747.792969 406.824219 749.511719 408.347656 C 751.277344 409.824219 753.265625 410.996094 755.375 411.808594 C 756.421875 412.234375 757.53125 412.492188 758.597656 412.839844 C 759.703125 413.035156 760.796875 413.234375 761.902344 413.382812 C 762.085938 413.410156 762.269531 413.304688 762.332031 413.125 C 762.410156 412.917969 762.300781 412.683594 762.09375 412.609375 L 762.054688 412.597656 C 761.027344 412.226562 759.984375 411.933594 758.960938 411.589844 C 757.972656 411.171875 756.949219 410.847656 756 410.363281 C 754.082031 409.441406 752.269531 408.355469 750.664062 407.007812 C 749.089844 405.632812 747.734375 404.023438 746.679688 402.210938 C 745.847656 400.785156 745.210938 399.203125 744.820312 397.570312 C 767.867188 397.535156 804.074219 396.402344 826.230469 390.335938 C 834.996094 404.246094 831.917969 435.910156 828.652344 446.222656 C 828.058594 448.082031 827.464844 449.273438 826.933594 449.5 C 826.203125 449.828125 819.882812 450.738281 810.183594 452 C 769.5 457.296875 669.058594 468.765625 669.058594 468.765625 C 669.058594 468.765625 669.15625 469.066406 669.3125 469.613281 C 670.957031 475.210938 679.945312 507.898438 672.949219 530.351562 C 669.597656 541.105469 663.355469 560.84375 657.386719 579.6875 C 657.207031 580.265625 657.023438 580.839844 656.839844 581.414062 C 651.816406 597.28125 647.050781 612.28125 644.449219 620.464844 L 614.71875 620.464844 C 614.71875 620.464844 610.605469 637.738281 606.488281 642.398438 C 603.289062 646.035156 589.621094 639.652344 576.597656 642.894531 Z M 924.007812 677.429688 C 942.207031 677.429688 956.96875 692.183594 956.96875 710.386719 C 956.96875 728.585938 942.207031 743.347656 924.007812 743.347656 C 905.804688 743.347656 891.050781 728.585938 891.050781 710.386719 C 891.050781 692.183594 905.804688 677.429688 924.007812 677.429688 Z M 954.90625 620.914062 C 940.507812 620.902344 921.621094 620.886719 905.609375 620.886719 L 902.90625 612.632812 C 896.335938 613.019531 890.015625 613.792969 884.066406 614.828125 L 886.058594 620.902344 C 880.207031 620.90625 875.898438 620.921875 874.035156 620.941406 C 866.375 621.023438 851.164062 630.988281 843.015625 636.734375 C 840.476562 638.527344 837.601562 639.722656 834.585938 640.304688 C 832.972656 645.71875 829.339844 652.492188 821.367188 658.488281 L 824.011719 658.488281 C 832.308594 658.488281 839.902344 663.167969 843.632812 670.582031 C 845.585938 674.453125 849.101562 677.199219 853.179688 678.25 C 861.003906 661.046875 874.894531 647.203125 892.128906 639.445312 L 894.5625 667.71875 C 879.957031 675.585938 871.339844 692.222656 871.339844 709.972656 L 846.230469 710.386719 L 831.167969 710.386719 L 831.167969 684.355469 C 831.167969 679.941406 827.589844 676.359375 823.175781 676.359375 L 777.519531 676.359375 C 738.785156 688.285156 682.207031 701.277344 637.316406 705.800781 C 578.488281 711.730469 553.839844 709.105469 523.492188 689.820312 L 523.492188 720.976562 C 523.492188 725.390625 527.070312 728.976562 531.484375 728.976562 L 848.480469 728.976562 L 873.242188 728.625 C 880.421875 745.117188 905.121094 762.507812 924.257812 762.507812 C 950 762.507812 977.550781 737.238281 977.550781 711.496094 C 977.550781 685.753906 953.421875 660.863281 927.679688 660.863281 C 926.234375 660.863281 909.878906 633.917969 909.878906 633.917969 C 914.460938 633.070312 919.179688 632.609375 924.007812 632.609375 C 942.898438 632.609375 960.210938 639.347656 973.683594 650.539062 L 974.605469 643.324219 C 976.125 631.445312 966.882812 620.925781 954.90625 620.914062 " fill-opacity="1" fill-rule="nonzero"/></g><path fill="#1d1b19" d="M 946.976562 135.113281 C 947.199219 134.675781 947.734375 134.496094 948.167969 134.714844 L 948.363281 134.8125 L 999.203125 160.191406 L 999.390625 160.289062 C 999.835938 160.511719 1000.011719 161.042969 999.796875 161.480469 C 999.640625 161.792969 999.320312 161.972656 998.996094 161.972656 C 998.863281 161.972656 998.726562 161.941406 998.605469 161.875 L 998.53125 161.84375 L 994.242188 159.703125 L 987.359375 156.265625 L 982.878906 154.027344 L 975.992188 150.597656 L 947.445312 136.34375 L 947.375 136.304688 C 946.9375 136.089844 946.757812 135.554688 946.976562 135.113281 Z M 957.703125 123.753906 L 964.835938 92.703125 C 964.972656 92.128906 965.546875 91.773438 966.121094 91.902344 C 966.691406 92.03125 967.058594 92.613281 966.921875 93.183594 L 966.921875 93.191406 L 960.410156 120.554688 Z M 955.789062 126.019531 L 953.15625 129.144531 L 961.871094 91.226562 C 962 90.644531 962.578125 90.289062 963.152344 90.417969 C 963.726562 90.554688 964.082031 91.128906 963.953125 91.699219 L 963.953125 91.707031 Z M 801.984375 188.457031 C 801.90625 187.976562 802.238281 187.519531 802.726562 187.441406 L 803.105469 187.382812 L 902.015625 171.710938 L 902.394531 171.652344 C 902.875 171.574219 903.332031 171.90625 903.410156 172.386719 C 903.488281 172.875 903.15625 173.332031 902.671875 173.402344 L 902.296875 173.460938 L 889.011719 175.570312 L 881.417969 176.773438 L 876.476562 177.554688 L 868.875 178.761719 L 803.378906 189.140625 L 803 189.199219 C 802.953125 189.207031 802.910156 189.207031 802.863281 189.207031 C 802.433594 189.207031 802.054688 188.902344 801.984375 188.457031 Z M 1067.511719 265.050781 C 1067.511719 265.539062 1067.113281 265.9375 1066.621094 265.9375 L 843.859375 265.9375 L 843.859375 270.082031 C 843.859375 270.578125 843.464844 270.976562 842.96875 270.976562 C 842.480469 270.976562 842.078125 270.578125 842.078125 270.082031 L 842.078125 260.019531 C 842.078125 259.527344 842.480469 259.128906 842.96875 259.128906 C 843.464844 259.128906 843.859375 259.527344 843.859375 260.019531 L 843.859375 264.167969 L 1066.621094 264.167969 C 1067.113281 264.167969 1067.511719 264.5625 1067.511719 265.050781 Z M 927.066406 450.238281 L 920.90625 461.320312 L 939.382812 461.320312 C 939.390625 461.320312 939.394531 461.320312 939.394531 461.320312 L 945.566406 450.238281 L 947.597656 450.238281 L 915.777344 507.441406 C 915.613281 507.734375 915.3125 507.898438 915 507.898438 C 914.851562 507.898438 914.703125 507.859375 914.566406 507.785156 C 914.140625 507.546875 913.984375 507.003906 914.21875 506.574219 L 938.414062 463.089844 L 919.914062 463.089844 L 898.957031 500.769531 C 898.792969 501.0625 898.496094 501.226562 898.183594 501.226562 C 898.03125 501.226562 897.890625 501.1875 897.753906 501.113281 C 897.324219 500.875 897.167969 500.335938 897.40625 499.90625 L 925.03125 450.238281 Z M 413.3125 700.457031 C 414.25 701.945312 414.945312 703.5625 415.441406 705.234375 C 415.902344 706.917969 416.085938 708.65625 416.078125 710.386719 C 416.078125 710.609375 415.902344 710.792969 415.683594 710.792969 C 415.460938 710.792969 415.285156 710.601562 415.277344 710.386719 C 415.160156 703.738281 410.792969 697.546875 404.746094 695.195312 C 403.238281 694.609375 401.664062 694.257812 400.0625 694.070312 C 398.453125 693.953125 396.839844 694.027344 395.257812 694.332031 C 393.6875 694.675781 392.167969 695.203125 390.746094 695.964844 C 389.339844 696.746094 388.054688 697.714844 386.902344 698.835938 C 385.773438 699.980469 384.804688 701.269531 384.015625 702.675781 C 383.261719 704.085938 382.730469 705.617188 382.378906 707.1875 C 382.070312 708.765625 381.992188 710.386719 382.117188 711.996094 C 382.300781 713.597656 382.644531 715.183594 383.238281 716.695312 C 385.574219 722.753906 391.78125 727.15625 398.453125 727.273438 C 398.640625 727.273438 398.792969 727.429688 398.792969 727.617188 C 398.792969 727.800781 398.636719 727.949219 398.453125 727.957031 C 396.730469 727.957031 394.996094 727.773438 393.316406 727.316406 C 391.652344 726.828125 390.039062 726.132812 388.554688 725.203125 C 387.097656 724.238281 385.769531 723.066406 384.617188 721.746094 C 383.496094 720.390625 382.566406 718.875 381.851562 717.269531 C 381.152344 715.640625 380.722656 713.910156 380.515625 712.152344 C 380.359375 710.386719 380.425781 708.609375 380.742188 706.867188 C 381.109375 705.128906 381.679688 703.4375 382.507812 701.863281 C 383.355469 700.300781 384.414062 698.863281 385.644531 697.578125 C 386.921875 696.34375 388.363281 695.28125 389.921875 694.429688 C 391.496094 693.601562 393.195312 693.03125 394.925781 692.660156 C 396.675781 692.339844 398.460938 692.269531 400.222656 692.417969 C 401.980469 692.625 403.71875 693.050781 405.347656 693.746094 C 406.960938 694.46875 408.476562 695.390625 409.835938 696.519531 C 411.171875 697.671875 412.34375 698.996094 413.3125 700.457031 Z M 930.304688 695.195312 C 928.792969 694.609375 927.210938 694.257812 925.617188 694.070312 C 924.007812 693.953125 922.394531 694.027344 920.8125 694.332031 C 919.246094 694.675781 917.722656 695.203125 916.300781 695.964844 C 914.898438 696.746094 913.609375 697.714844 912.457031 698.835938 C 911.328125 699.980469 910.359375 701.269531 909.574219 702.675781 C 908.816406 704.085938 908.285156 705.617188 907.933594 707.1875 C 907.625 708.765625 907.546875 710.386719 907.671875 711.996094 C 907.855469 713.597656 908.199219 715.183594 908.785156 716.695312 C 911.128906 722.753906 917.332031 727.15625 924.007812 727.273438 C 924.199219 727.273438 924.347656 727.429688 924.347656 727.617188 C 924.347656 727.800781 924.191406 727.949219 924.007812 727.957031 C 922.285156 727.957031 920.554688 727.773438 918.875 727.316406 C 917.207031 726.828125 915.59375 726.132812 914.109375 725.203125 C 912.644531 724.238281 911.324219 723.066406 910.171875 721.746094 C 909.050781 720.390625 908.121094 718.875 907.40625 717.269531 C 906.707031 715.640625 906.273438 713.910156 906.066406 712.152344 C 905.914062 710.386719 905.980469 708.609375 906.300781 706.867188 C 906.664062 705.128906 907.234375 703.4375 908.0625 701.863281 C 908.910156 700.300781 909.96875 698.863281 911.199219 697.578125 C 912.476562 696.34375 913.921875 695.28125 915.476562 694.429688 C 917.050781 693.601562 918.75 693.03125 920.480469 692.660156 C 922.230469 692.339844 924.007812 692.269531 925.78125 692.417969 C 927.535156 692.625 929.273438 693.050781 930.902344 693.746094 C 932.515625 694.46875 934.03125 695.390625 935.394531 696.519531 C 936.71875 697.671875 937.898438 698.996094 938.867188 700.457031 C 939.800781 701.945312 940.5 703.5625 940.996094 705.234375 C 941.453125 706.917969 941.640625 708.65625 941.632812 710.386719 C 941.632812 710.609375 941.457031 710.792969 941.230469 710.792969 C 941.015625 710.792969 940.832031 710.601562 940.832031 710.386719 C 940.714844 703.738281 936.347656 697.546875 930.304688 695.195312 Z M 829.621094 517.511719 C 819.832031 519.097656 810.132812 521.285156 800.609375 524.066406 C 791.082031 526.816406 781.636719 530.007812 772.585938 534.042969 L 772.566406 534.042969 C 772.394531 534.121094 772.195312 534.042969 772.121094 533.875 C 772.042969 533.703125 772.121094 533.503906 772.292969 533.425781 C 790.4375 525.125 809.722656 519.464844 829.390625 516.136719 C 849.054688 512.804688 869.289062 512.160156 889.0625 515.316406 C 891.523438 515.777344 894.003906 516.125 896.4375 516.710938 L 903.726562 518.492188 C 908.511719 519.96875 913.316406 521.390625 917.929688 523.355469 C 927.179688 527.128906 936.132812 531.785156 944.191406 537.734375 C 960.625 549.246094 973.664062 565.003906 983.804688 582.109375 C 983.914062 582.296875 983.855469 582.546875 983.660156 582.65625 C 983.480469 582.773438 983.238281 582.714844 983.121094 582.53125 L 983.113281 582.519531 C 977.75 574.175781 972.179688 565.921875 965.390625 558.691406 L 962.917969 555.925781 C 962.5 555.46875 962.105469 554.992188 961.675781 554.542969 L 960.328125 553.261719 L 954.964844 548.140625 C 953.175781 546.429688 951.15625 544.976562 949.269531 543.390625 L 946.386719 541.046875 C 945.402344 540.296875 944.355469 539.640625 943.347656 538.925781 C 935.355469 533.085938 926.480469 528.542969 917.324219 524.863281 C 912.769531 522.9375 908.011719 521.570312 903.277344 520.140625 L 896.066406 518.414062 C 893.664062 517.84375 891.207031 517.53125 888.777344 517.0625 C 869.257812 513.820312 849.179688 514.320312 829.621094 517.511719 Z M 827.628906 631.671875 C 827.699219 631.878906 827.582031 632.109375 827.375 632.171875 L 827.363281 632.179688 C 819.796875 634.699219 812.671875 638.441406 805.707031 642.347656 C 802.21875 644.300781 798.761719 646.324219 795.351562 648.414062 L 790.269531 651.59375 C 788.558594 652.664062 786.96875 653.800781 785.101562 654.816406 C 781.378906 656.691406 777.179688 657.421875 773.078125 657.285156 C 768.972656 657.121094 764.878906 656.269531 761.136719 654.40625 C 760.226562 653.992188 759.261719 653.253906 758.507812 652.5 C 757.804688 651.71875 757.085938 650.9375 756.527344 650.09375 C 755.902344 649.265625 755.324219 648.425781 754.804688 647.554688 C 754.261719 646.695312 753.714844 645.828125 753.242188 644.9375 C 751.210938 641.421875 749.503906 637.757812 747.910156 634.054688 C 744.820312 626.59375 742.324219 618.894531 740.570312 611.015625 C 738.84375 603.136719 737.875 595.042969 738.328125 586.9375 C 738.480469 582.875 739.261719 578.878906 740.164062 574.9375 C 741.246094 571.039062 742.5 567.179688 744.207031 563.507812 C 747.625 556.183594 752.0625 549.335938 757.667969 543.492188 C 757.789062 543.363281 758.003906 543.355469 758.140625 543.488281 C 758.277344 543.617188 758.285156 543.824219 758.15625 543.960938 L 758.140625 543.980469 C 752.765625 549.839844 748.496094 556.730469 745.300781 564 C 743.667969 567.628906 742.457031 571.421875 741.421875 575.253906 C 740.574219 579.128906 739.839844 583.046875 739.722656 587.011719 C 739.332031 594.9375 740.347656 602.910156 742.109375 610.667969 C 743.90625 618.433594 746.433594 626.03125 749.539062 633.363281 C 751.105469 637.015625 752.757812 640.65625 754.71875 644.097656 C 755.179688 644.984375 755.707031 645.816406 756.230469 646.65625 C 756.730469 647.507812 757.28125 648.320312 757.863281 649.101562 C 758.410156 649.9375 759.054688 650.632812 759.679688 651.347656 C 760.34375 652 760.972656 652.527344 761.878906 652.960938 C 765.316406 654.714844 769.246094 655.566406 773.132812 655.742188 C 777.023438 655.898438 780.980469 655.226562 784.445312 653.507812 C 797.929688 645.160156 811.746094 636.417969 827.121094 631.410156 C 827.335938 631.347656 827.5625 631.457031 827.628906 631.671875 Z M 715.789062 570.378906 C 716.839844 574.351562 716.976562 578.515625 716.46875 582.570312 C 715.882812 586.613281 714.695312 590.539062 713.089844 594.242188 C 711.476562 597.949219 709.515625 601.464844 707.335938 604.832031 C 707.21875 605.011719 706.964844 605.066406 706.78125 604.949219 C 706.605469 604.832031 706.546875 604.609375 706.640625 604.425781 C 708.441406 600.875 710.207031 597.3125 711.636719 593.640625 C 713.0625 589.972656 714.207031 586.195312 714.710938 582.332031 C 715.28125 578.484375 715.152344 574.53125 714.332031 570.730469 C 713.511719 566.9375 711.90625 563.292969 709.429688 560.226562 C 709.3125 560.082031 709.339844 559.867188 709.484375 559.75 C 709.621094 559.640625 709.816406 559.652344 709.9375 559.769531 C 712.828125 562.648438 714.761719 566.429688 715.789062 570.378906 Z M 708.980469 589.769531 C 706.386719 595.875 702.082031 600.917969 697.652344 605.578125 C 697.5 605.742188 697.246094 605.75 697.085938 605.597656 C 696.929688 605.449219 696.914062 605.203125 697.050781 605.046875 C 699.140625 602.597656 701.164062 600.105469 702.957031 597.46875 C 704.777344 594.859375 706.371094 592.101562 707.53125 589.171875 C 709.847656 583.402344 710.40625 576.65625 707.738281 571.070312 C 706.484375 568.285156 704.261719 565.988281 702.148438 563.527344 C 700.019531 561.117188 697.964844 558.230469 697.226562 554.914062 C 696.402344 551.648438 696.484375 548.269531 697.019531 545.046875 C 697.574219 541.8125 698.5625 538.710938 699.65625 535.667969 C 699.71875 535.492188 699.910156 535.402344 700.089844 535.46875 C 700.261719 535.527344 700.351562 535.714844 700.300781 535.882812 C 699.375 538.957031 698.566406 542.066406 698.203125 545.21875 C 697.792969 548.355469 697.820312 551.558594 698.671875 554.523438 C 699.480469 557.53125 701.261719 560.070312 703.402344 562.433594 C 705.492188 564.820312 707.882812 567.203125 709.339844 570.308594 C 712.222656 576.523438 711.558594 583.742188 708.980469 589.769531 Z M 488.15625 657.8125 C 488.273438 657.980469 488.226562 658.207031 488.070312 658.339844 C 488.066406 658.34375 488.066406 658.359375 488.050781 658.371094 C 487.875 658.496094 487.628906 658.449219 487.5 658.273438 C 487.316406 658.027344 487.148438 657.773438 486.957031 657.523438 C 480.792969 649.148438 475.164062 640.363281 470.191406 631.210938 C 465.070312 621.785156 460.652344 611.976562 456.90625 601.921875 C 453.242188 591.832031 450.238281 581.503906 448.101562 570.984375 C 446.011719 560.800781 444.722656 550.464844 444.195312 540.089844 C 444.175781 539.761719 444.144531 539.4375 444.132812 539.113281 C 444.125 538.925781 444.269531 538.769531 444.457031 538.753906 C 444.640625 538.75 444.796875 538.886719 444.808594 539.066406 C 444.839844 539.476562 444.894531 539.886719 444.933594 540.296875 C 445.042969 541.566406 445.179688 542.835938 445.308594 544.097656 C 446.242188 553.035156 447.644531 561.917969 449.574219 570.679688 C 451.871094 581.082031 454.84375 591.332031 458.574219 601.308594 C 462.226562 611.3125 466.617188 621.039062 471.578125 630.46875 C 476.542969 639.894531 482.097656 649.019531 488.15625 657.8125 Z M 478.257812 559.035156 C 478.035156 548.25 479.285156 537.40625 482.050781 526.949219 C 484.835938 516.496094 488.976562 506.386719 494.46875 497.046875 C 497.234375 492.398438 500.292969 487.910156 503.632812 483.664062 L 513.695312 471.078125 C 516.976562 466.851562 520.046875 462.464844 522.503906 457.742188 C 524.996094 453.042969 526.84375 447.972656 527.558594 442.6875 C 527.578125 442.496094 527.75 442.367188 527.9375 442.394531 C 528.121094 442.414062 528.25 442.582031 528.230469 442.765625 C 527.683594 448.171875 525.953125 453.414062 523.5625 458.28125 C 521.167969 463.148438 518.117188 467.660156 514.886719 471.980469 C 511.664062 476.316406 508.203125 480.4375 504.949219 484.6875 C 501.667969 488.917969 498.695312 493.34375 496 497.945312 C 490.523438 507.117188 486.457031 517.082031 483.566406 527.359375 C 482.101562 532.492188 481.0625 537.746094 480.3125 543.039062 C 479.546875 548.328125 479.121094 553.671875 479.058594 559.027344 C 479.058594 559.25 478.875 559.433594 478.652344 559.425781 C 478.4375 559.425781 478.261719 559.25 478.257812 559.035156 Z M 526.445312 363.417969 L 526.347656 345.949219 L 526.484375 328.480469 C 526.558594 322.652344 526.699219 316.828125 526.894531 311.003906 C 526.902344 310.820312 527.058594 310.671875 527.246094 310.679688 C 527.421875 310.683594 527.566406 310.828125 527.574219 311.003906 C 527.769531 316.828125 527.910156 322.652344 527.984375 328.480469 L 528.121094 345.949219 L 528.023438 363.417969 C 527.964844 368.605469 527.832031 373.785156 527.675781 378.972656 C 527.65625 379.609375 527.65625 380.25 527.636719 380.886719 C 527.632812 381.109375 527.441406 381.285156 527.222656 381.277344 C 527.007812 381.265625 526.835938 381.09375 526.832031 380.886719 C 526.8125 380.25 526.8125 379.609375 526.792969 378.972656 C 526.636719 373.785156 526.503906 368.605469 526.445312 363.417969 Z M 584.789062 342.230469 C 584.464844 339.511719 584.238281 336.777344 584.199219 334.039062 C 584.199219 333.855469 584.347656 333.699219 584.535156 333.691406 C 584.707031 333.691406 584.847656 333.816406 584.875 333.972656 L 586.269531 342.003906 C 586.769531 344.671875 587.25 347.339844 587.863281 349.976562 C 588.390625 352.632812 589.035156 355.261719 589.679688 357.898438 L 591.6875 365.792969 C 591.742188 366.007812 591.613281 366.230469 591.398438 366.289062 C 591.203125 366.332031 591 366.230469 590.921875 366.054688 C 589.855469 363.527344 588.960938 360.9375 588.160156 358.316406 C 587.367188 355.691406 586.722656 353.023438 586.125 350.347656 C 585.605469 347.652344 585.109375 344.953125 584.789062 342.230469 Z M 736.527344 204.378906 C 736.535156 204.582031 736.390625 204.75 736.203125 204.789062 C 733.558594 205.296875 730.941406 205.835938 728.378906 206.550781 C 725.8125 207.261719 723.269531 208.054688 720.808594 209.058594 C 718.308594 209.976562 715.90625 211.128906 713.53125 212.332031 C 712.347656 212.925781 711.222656 213.582031 710.265625 214.410156 C 709.867188 214.738281 709.515625 215.117188 709.203125 215.519531 C 708.761719 216.101562 708.421875 216.75 708.265625 217.480469 C 708.226562 217.664062 708.050781 217.785156 707.867188 217.746094 C 707.699219 217.714844 707.589844 217.566406 707.597656 217.402344 C 707.601562 217.160156 707.660156 216.925781 707.707031 216.699219 C 707.941406 215.496094 708.625 214.402344 709.445312 213.542969 C 710.445312 212.519531 711.625 211.726562 712.800781 211.023438 C 715.152344 209.617188 717.632812 208.445312 720.15625 207.40625 C 725.261719 205.445312 730.664062 204.15625 736.109375 203.988281 C 736.339844 203.980469 736.519531 204.15625 736.527344 204.378906 Z M 673.425781 311.757812 C 672.195312 309.863281 671.308594 307.730469 670.878906 305.492188 C 670.859375 305.394531 670.867188 305.296875 670.878906 305.199219 C 670.933594 304.839844 671.199219 304.535156 671.578125 304.457031 C 671.757812 304.421875 671.933594 304.457031 672.097656 304.527344 C 672.226562 304.585938 672.34375 304.664062 672.429688 304.769531 C 673.328125 305.882812 674.804688 306.609375 676.335938 307.15625 C 677.882812 307.675781 679.535156 308.003906 681.214844 308.238281 C 681.4375 308.261719 681.59375 308.464844 681.5625 308.6875 C 681.542969 308.882812 681.378906 309.023438 681.191406 309.039062 C 679.4375 309.160156 677.664062 309.039062 675.910156 308.601562 C 675.046875 308.386719 674.152344 308.101562 673.316406 307.65625 C 673.710938 308.789062 674.1875 309.898438 674.765625 310.953125 C 675.753906 312.792969 677.050781 314.464844 678.535156 316.003906 C 678.664062 316.140625 678.664062 316.359375 678.527344 316.488281 C 678.410156 316.601562 678.234375 316.613281 678.105469 316.527344 C 676.238281 315.304688 674.675781 313.640625 673.425781 311.757812 Z M 762.09375 412.609375 C 762.300781 412.683594 762.410156 412.917969 762.332031 413.125 C 762.269531 413.304688 762.085938 413.410156 761.902344 413.382812 C 760.796875 413.234375 759.703125 413.035156 758.597656 412.839844 C 757.53125 412.492188 756.421875 412.234375 755.375 411.808594 C 753.265625 410.996094 751.277344 409.824219 749.511719 408.347656 C 747.792969 406.824219 746.324219 404.988281 745.347656 402.90625 C 744.546875 401.21875 744.03125 399.421875 743.90625 397.570312 C 743.882812 397.144531 743.855469 396.714844 743.875 396.28125 C 743.882812 396.097656 744.039062 395.949219 744.226562 395.960938 C 744.390625 395.96875 744.519531 396.085938 744.546875 396.242188 L 744.550781 396.28125 C 744.617188 396.714844 744.714844 397.144531 744.820312 397.570312 C 745.210938 399.203125 745.847656 400.785156 746.679688 402.210938 C 747.734375 404.023438 749.089844 405.632812 750.664062 407.007812 C 752.269531 408.355469 754.082031 409.441406 756 410.363281 C 756.949219 410.847656 757.972656 411.171875 758.960938 411.589844 C 759.984375 411.933594 761.027344 412.226562 762.054688 412.597656 Z M 748.507812 390.273438 C 757.007812 390.019531 765.503906 389.609375 773.984375 388.945312 C 782.472656 388.320312 790.9375 387.472656 799.402344 386.542969 C 803.632812 386.082031 807.855469 385.574219 812.078125 385.027344 C 816.296875 384.519531 820.515625 383.953125 824.71875 383.328125 C 824.726562 383.328125 824.726562 383.328125 824.730469 383.320312 C 824.921875 383.296875 825.089844 383.417969 825.121094 383.609375 C 825.148438 383.777344 825.03125 383.941406 824.863281 383.984375 C 824.855469 383.984375 824.855469 383.992188 824.847656 383.992188 C 816.464844 385.605469 808.039062 386.921875 799.582031 388.035156 C 791.121094 389.144531 782.628906 389.992188 774.121094 390.707031 C 765.609375 391.320312 757.074219 391.738281 748.535156 391.847656 C 739.988281 391.886719 731.445312 391.582031 722.941406 390.761719 C 722.722656 390.742188 722.558594 390.546875 722.578125 390.324219 C 722.597656 390.109375 722.785156 389.953125 722.996094 389.960938 L 723.007812 389.960938 C 727.257812 390.121094 731.503906 390.375 735.757812 390.335938 C 740.007812 390.453125 744.257812 390.316406 748.507812 390.273438 Z M 739.402344 252.28125 C 740.28125 246.605469 740.511719 240.851562 739.261719 235.332031 C 738.070312 229.792969 735.09375 224.742188 731.125 220.695312 C 727.15625 216.640625 722.175781 213.476562 716.8125 211.570312 L 716.785156 211.558594 C 716.65625 211.511719 716.597656 211.394531 716.585938 211.265625 C 716.578125 211.21875 716.558594 211.171875 716.578125 211.128906 C 716.636719 210.953125 716.832031 210.859375 717 210.917969 C 717.078125 210.9375 717.152344 210.972656 717.230469 210.996094 C 722.722656 212.808594 727.773438 215.832031 731.964844 219.847656 C 736.164062 223.957031 739.371094 229.203125 740.710938 234.980469 C 742.164062 240.742188 741.890625 246.777344 741.050781 252.503906 C 740.710938 255.398438 740.140625 258.25 739.652344 261.113281 C 739.039062 263.953125 738.519531 266.808594 737.835938 269.628906 C 735.160156 280.914062 731.972656 292.050781 728.515625 303.101562 C 726.785156 308.628906 724.960938 314.121094 723.117188 319.609375 C 721.589844 324.015625 720.027344 328.402344 718.433594 332.789062 C 718.046875 333.84375 717.675781 334.902344 717.289062 335.957031 C 717.210938 336.164062 716.976562 336.269531 716.765625 336.199219 C 716.566406 336.121094 716.460938 335.890625 716.527344 335.691406 C 716.589844 335.507812 716.644531 335.328125 716.703125 335.152344 C 720.300781 324.367188 723.738281 313.523438 727.011719 302.640625 C 730.316406 291.574219 733.507812 280.457031 736.109375 269.222656 C 736.808594 266.425781 737.339844 263.59375 737.964844 260.78125 C 738.460938 257.953125 739.050781 255.125 739.402344 252.28125 Z M 710.160156 157.953125 C 710.089844 157.273438 710.101562 156.628906 710.109375 155.988281 C 710.09375 155.34375 710.140625 154.710938 710.152344 154.078125 C 710.199219 153.441406 710.210938 152.808594 710.277344 152.164062 C 710.328125 151.523438 710.375 150.878906 710.5 150.199219 C 710.53125 150.011719 710.714844 149.882812 710.910156 149.914062 C 711.027344 149.933594 711.117188 150.011719 711.167969 150.109375 C 711.480469 150.742188 711.652344 151.410156 711.773438 152.085938 C 711.910156 152.765625 711.9375 153.453125 711.929688 154.144531 C 711.898438 154.828125 711.839844 155.511719 711.664062 156.183594 C 711.5 156.851562 711.292969 157.507812 710.949219 158.121094 C 710.832031 158.324219 710.578125 158.394531 710.375 158.285156 C 710.25 158.210938 710.171875 158.082031 710.160156 157.953125 Z M 706.449219 159.34375 C 706.328125 159.265625 706.253906 159.125 706.253906 158.988281 C 706.253906 158.246094 706.320312 157.546875 706.371094 156.84375 L 706.542969 154.769531 L 706.738281 152.6875 C 706.800781 151.988281 706.855469 151.289062 706.976562 150.550781 C 707.011719 150.355469 707.191406 150.226562 707.386719 150.257812 C 707.503906 150.277344 707.601562 150.363281 707.65625 150.460938 C 707.960938 151.164062 708.128906 151.90625 708.234375 152.652344 C 708.351562 153.394531 708.351562 154.15625 708.3125 154.90625 C 708.246094 155.660156 708.140625 156.410156 707.914062 157.132812 C 707.707031 157.855469 707.441406 158.5625 707.023438 159.214844 C 706.898438 159.410156 706.644531 159.46875 706.449219 159.34375 Z M 703.039062 159.828125 C 702.921875 159.742188 702.859375 159.597656 702.863281 159.457031 C 702.890625 158.714844 702.980469 158.011719 703.050781 157.308594 L 703.273438 155.226562 L 703.488281 153.136719 C 703.558594 152.433594 703.613281 151.722656 703.730469 150.980469 C 703.753906 150.792969 703.9375 150.65625 704.132812 150.6875 C 704.25 150.703125 704.355469 150.785156 704.398438 150.890625 C 704.71875 151.601562 704.882812 152.347656 704.984375 153.101562 C 705.101562 153.863281 705.089844 154.632812 705.039062 155.394531 C 704.960938 156.15625 704.835938 156.910156 704.589844 157.640625 C 704.355469 158.367188 704.0625 159.070312 703.625 159.714844 C 703.496094 159.90625 703.226562 159.957031 703.039062 159.828125 Z M 690.515625 175.746094 C 690.523438 175.78125 690.53125 175.804688 690.535156 175.839844 C 690.574219 176.4375 690.320312 176.851562 690.007812 177.21875 C 689.695312 177.582031 689.285156 177.816406 688.890625 177.972656 C 688.480469 178.121094 688.070312 178.207031 687.652344 178.195312 C 687.242188 178.1875 686.839844 178.128906 686.449219 177.941406 C 686.222656 177.835938 686.125 177.5625 686.226562 177.335938 C 686.265625 177.257812 686.324219 177.191406 686.398438 177.144531 L 686.410156 177.140625 C 687.085938 176.703125 687.710938 176.527344 688.273438 176.304688 C 688.5625 176.226562 688.8125 176.109375 689.085938 176.03125 C 689.34375 175.949219 689.613281 175.800781 689.871094 175.6875 L 690.125 175.585938 C 690.277344 175.527344 690.453125 175.597656 690.515625 175.746094 Z M 708.480469 181.625 C 708.5 181.421875 708.683594 181.265625 708.890625 181.273438 C 712.523438 181.296875 716.140625 181.371094 719.761719 181.34375 C 723.371094 181.265625 726.984375 181.214844 730.578125 180.886719 C 734.183594 180.679688 737.757812 180.207031 741.292969 179.582031 C 744.804688 178.921875 748.378906 178.101562 751.582031 176.625 L 751.625 176.605469 C 751.699219 176.574219 751.777344 176.578125 751.847656 176.59375 C 751.945312 176.617188 752.03125 176.675781 752.074219 176.769531 C 752.148438 176.925781 752.089844 177.113281 751.945312 177.199219 C 751.847656 177.257812 751.742188 177.300781 751.640625 177.359375 C 748.507812 179.222656 745.058594 180.21875 741.597656 181.050781 C 738.011719 181.871094 734.367188 182.347656 730.714844 182.652344 C 727.058594 182.925781 723.398438 182.984375 719.746094 182.914062 L 714.273438 182.632812 C 712.457031 182.445312 710.640625 182.292969 708.832031 182.074219 C 708.609375 182.046875 708.449219 181.84375 708.480469 181.625 Z M 690.203125 159.761719 C 690.203125 158.582031 690.789062 157.625 691.507812 157.625 C 692.230469 157.625 692.808594 158.582031 692.808594 159.761719 C 692.808594 160.941406 692.230469 161.890625 691.507812 161.890625 C 690.789062 161.890625 690.203125 160.941406 690.203125 159.761719 Z M 553.90625 344.054688 C 553.90625 347.171875 551.382812 349.699219 548.261719 349.699219 C 545.152344 349.699219 542.628906 347.171875 542.628906 344.054688 C 542.628906 340.9375 545.152344 338.410156 548.261719 338.410156 C 551.382812 338.410156 553.90625 340.9375 553.90625 344.054688 Z M 534.105469 355.445312 C 533.136719 354.109375 529.128906 344.269531 529.25 342.324219 C 529.367188 340.382812 535.6875 332.125 540.304688 330.417969 C 544.917969 328.71875 552.9375 326.53125 559.984375 330.417969 C 561.742188 331.394531 563.84375 332.183594 566.007812 332.820312 C 571.539062 334.453125 577.449219 335.09375 579.050781 335.242188 C 579.09375 336.101562 579.679688 346.332031 580.867188 355.042969 C 581.152344 357.144531 581.476562 359.148438 581.835938 360.910156 L 574.917969 360.273438 C 574.917969 360.273438 574.34375 361.152344 571.898438 363.601562 C 570.777344 364.71875 568.441406 365.128906 566.007812 365.160156 L 566.007812 357 C 563.078125 358.90625 555.496094 357.703125 553.300781 356.695312 C 552.261719 356.21875 550.621094 354.421875 549.136719 352.605469 C 553.488281 352.164062 556.90625 348.527344 556.90625 344.054688 C 556.90625 339.285156 553.035156 335.417969 548.261719 335.417969 C 543.492188 335.417969 539.625 339.285156 539.625 344.054688 C 539.625 348 542.296875 351.296875 545.914062 352.328125 C 545.613281 353.25 545.09375 353.855469 544.4375 353.746094 C 542.980469 353.503906 540.425781 351.800781 540.425781 351.800781 C 540.425781 351.800781 539.574219 354.964844 538.117188 356.050781 C 536.660156 357.144531 535.078125 356.777344 534.105469 355.445312 Z M 616.453125 614.171875 L 591.871094 614.171875 C 591.871094 614.171875 591.175781 599.363281 591.183594 578 C 591.183594 577.410156 591.183594 576.816406 591.183594 576.21875 C 591.28125 524.097656 595.621094 435.515625 623.484375 424.234375 C 643.226562 416.242188 684.632812 404.539062 723.15625 396.285156 C 723.230469 396.910156 723.269531 397.269531 723.269531 397.269531 C 690.121094 405.046875 657.480469 414.570312 640.632812 421.390625 C 607.113281 434.960938 613.585938 571.460938 616.453125 614.171875 Z M 924.007812 698.976562 C 930.308594 698.976562 935.414062 704.085938 935.414062 710.386719 C 935.414062 716.6875 930.308594 721.792969 924.007812 721.792969 C 917.707031 721.792969 912.605469 716.6875 912.605469 710.386719 C 912.605469 704.085938 917.707031 698.976562 924.007812 698.976562 Z M 398.453125 698.976562 C 404.753906 698.976562 409.863281 704.085938 409.863281 710.386719 C 409.863281 716.6875 404.753906 721.792969 398.453125 721.792969 C 392.152344 721.792969 387.050781 716.6875 387.050781 710.386719 C 387.050781 704.085938 392.152344 698.976562 398.453125 698.976562 Z M 554.113281 310.796875 L 554.113281 258.113281 C 554.113281 257.625 554.511719 257.230469 555 257.230469 C 555.457031 257.230469 555.8125 257.566406 555.871094 258.003906 C 555.871094 258.042969 555.890625 258.074219 555.890625 258.113281 L 555.890625 310.796875 C 555.890625 311.285156 555.496094 311.679688 555 311.679688 C 554.511719 311.679688 554.113281 311.285156 554.113281 310.796875 Z M 535.109375 320.78125 C 535.109375 320.78125 538.304688 314.558594 541.148438 314.558594 C 541.613281 314.558594 542.125 314.617188 542.640625 314.695312 L 544.917969 306.371094 C 545.433594 306.707031 545.960938 307.019531 546.5 307.324219 L 544.382812 315.039062 C 546.441406 315.546875 548.261719 316.269531 548.261719 316.269531 L 548.261719 323.800781 C 548.261719 323.800781 543.992188 327.527344 535.109375 320.78125 Z M 681.59375 641.003906 L 683.574219 667.742188 C 683.574219 667.742188 573.316406 708.109375 512.316406 624.234375 C 451.308594 540.355469 530.046875 471.539062 535.195312 451.519531 C 540.335938 431.503906 540.335938 431.503906 540.335938 431.503906 L 553.484375 444.644531 L 556.035156 447.195312 L 556.632812 447.800781 C 558.867188 450.035156 559.601562 453.347656 558.5 456.304688 C 553.019531 471.046875 537.503906 517.433594 541.292969 560.941406 C 541.929688 568.277344 542.445312 574.714844 542.914062 580.4375 C 542.960938 581.035156 543.011719 581.652344 543.058594 582.238281 C 545.808594 616.027344 546.804688 623.179688 560.355469 634.144531 C 561.125 634.769531 562.003906 635.402344 562.921875 636.027344 C 566.457031 638.414062 571.0625 640.777344 576.597656 642.894531 C 589.621094 639.652344 603.289062 646.035156 606.488281 642.398438 C 610.605469 637.738281 614.71875 620.464844 614.71875 620.464844 L 647.617188 620.464844 C 647.617188 620.464844 642.957031 634.453125 645.699219 642.398438 C 646.402344 644.429688 646.960938 646.855469 647.398438 649.351562 C 658.261719 647.828125 669.675781 645.183594 681.429688 641.0625 C 681.484375 641.042969 681.542969 641.023438 681.59375 641.003906 Z M 877.402344 710.386719 L 846.230469 710.386719 C 846.230469 705.140625 846.757812 700.019531 847.746094 695.058594 C 847.871094 694.46875 848.007812 693.875 848.136719 693.289062 C 849.316406 688.058594 851.015625 683.027344 853.179688 678.25 C 861.003906 661.046875 874.894531 647.203125 892.128906 639.445312 L 901.925781 669.339844 C 887.324219 677.207031 877.402344 692.640625 877.402344 710.386719 Z M 987.390625 665.339844 C 996.445312 678.054688 1001.789062 693.589844 1001.789062 710.386719 C 1001.789062 711.671875 1001.75 712.945312 1001.691406 714.207031 C 1001.65625 714.867188 1001.597656 715.515625 1001.546875 716.167969 C 998.585938 756.425781 965.019531 788.167969 924.007812 788.167969 C 901.136719 788.167969 880.578125 778.292969 866.347656 762.582031 C 865.75 761.921875 865.171875 761.242188 864.597656 760.5625 C 856.984375 751.554688 851.386719 740.796875 848.480469 728.976562 L 881.261719 728.976562 C 888.445312 745.464844 904.875 756.996094 924.007812 756.996094 C 949.75 756.996094 970.617188 736.128906 970.617188 710.386719 C 970.617188 684.644531 949.75 663.78125 924.007812 663.78125 C 922.5625 663.78125 921.136719 663.851562 919.734375 663.980469 L 909.878906 633.917969 C 914.460938 633.070312 919.179688 632.609375 924.007812 632.609375 C 942.898438 632.609375 960.210938 639.347656 973.683594 650.539062 C 978.414062 654.480469 982.679688 658.957031 986.363281 663.890625 C 986.714844 664.367188 987.046875 664.855469 987.390625 665.339844 Z M 476.230469 710.386719 C 476.230469 753.34375 441.410156 788.167969 398.453125 788.167969 C 369.476562 788.167969 344.21875 772.304688 330.835938 748.800781 C 330.546875 748.292969 330.242188 747.785156 329.964844 747.261719 C 324.039062 736.285156 320.675781 723.730469 320.675781 710.386719 C 320.675781 667.429688 355.496094 632.609375 398.453125 632.609375 C 399.242188 632.609375 400.023438 632.648438 400.808594 632.667969 C 402.730469 633.761719 404.664062 634.855469 406.636719 635.949219 C 408.398438 636.917969 410.253906 637.847656 412.148438 638.746094 L 403.84375 664.097656 C 402.074219 663.890625 400.277344 663.78125 398.453125 663.78125 C 372.710938 663.78125 351.84375 684.644531 351.84375 710.386719 C 351.84375 736.128906 372.710938 756.996094 398.453125 756.996094 C 424.195312 756.996094 445.0625 736.128906 445.0625 710.386719 C 445.0625 693.035156 435.574219 677.902344 421.507812 669.882812 L 429.488281 645.523438 C 435.644531 647.535156 442.023438 649.273438 448.386719 650.769531 C 465.402344 665.035156 476.230469 686.441406 476.230469 710.386719 Z M 690.863281 529.589844 C 690.414062 529.234375 690.210938 529.023438 690.210938 529.023438 C 690.210938 529.023438 671.726562 497.738281 676.699219 471.441406 C 676.886719 470.453125 677.402344 469.507812 678.152344 468.589844 C 674.972656 468.957031 672.019531 469.300781 669.3125 469.613281 C 669.15625 469.066406 669.058594 468.765625 669.058594 468.765625 C 669.058594 468.765625 769.5 457.296875 810.183594 452 C 819.882812 450.738281 826.203125 449.828125 826.933594 449.5 C 827.464844 449.273438 828.058594 448.082031 828.652344 446.222656 C 835.972656 445.949219 842.96875 445.726562 849.472656 445.550781 C 852.804688 448.460938 857.152344 450.238281 861.921875 450.238281 L 878.390625 450.238281 C 863.035156 461.660156 851.777344 486.761719 851.777344 486.761719 C 851.777344 486.761719 780.855469 482.1875 747.117188 525.652344 C 747.117188 525.652344 712.28125 534.230469 690.863281 529.589844 Z M 700.59375 349.699219 C 704.640625 348.800781 709.691406 344.140625 715.160156 337.160156 C 715.855469 341.605469 716.53125 346.144531 717.183594 350.632812 C 713.796875 354.917969 710.617188 357.722656 707.796875 358.476562 C 663.371094 370.347656 594.4375 373.324219 590.570312 373.492188 C 590.324219 373.507812 590.074219 373.375 589.835938 373.136719 C 589.496094 372.804688 589.164062 372.242188 588.839844 371.496094 C 588.363281 370.402344 587.90625 368.90625 587.476562 367.167969 C 601.304688 365.863281 660.03125 358.679688 700.59375 349.699219 Z M 697.878906 149.75 C 698.417969 149.730469 698.953125 149.648438 699.484375 149.542969 C 699.511719 150.148438 699.523438 150.832031 699.519531 151.582031 C 698.859375 151.328125 698.234375 151.054688 697.65625 150.722656 C 697.125 150.402344 696.621094 150.042969 696.152344 149.660156 C 696.648438 149.730469 697.214844 149.769531 697.878906 149.75 Z M 692.679688 187.730469 C 692.683594 187.734375 692.691406 187.734375 692.703125 187.734375 C 690.808594 186.902344 689.203125 185.816406 688.136719 184.480469 C 685.539062 181.234375 684.957031 176.800781 684.945312 171.820312 C 683.921875 171.507812 682.5 170.792969 681.046875 169.054688 C 678.96875 166.574219 683.175781 161.835938 685.296875 159.714844 C 685.304688 158.726562 685.304688 157.730469 685.269531 156.742188 C 685.265625 156.625 685.257812 156.507812 685.257812 156.390625 C 685.152344 153.277344 685.640625 150.296875 686.597656 147.523438 C 686.632812 147.5625 686.65625 147.621094 686.695312 147.667969 C 687.101562 148.164062 687.628906 148.546875 688.195312 148.851562 C 688.765625 149.132812 689.390625 149.335938 690.035156 149.359375 C 690.671875 149.40625 691.324219 149.335938 691.902344 149.054688 C 692.007812 149.003906 692.097656 148.910156 692.132812 148.789062 C 692.195312 148.558594 692.058594 148.324219 691.839844 148.261719 L 691.8125 148.253906 C 691.277344 148.105469 690.789062 147.988281 690.320312 147.816406 C 690.171875 147.757812 690.023438 147.6875 689.867188 147.628906 C 690.796875 147.40625 691.683594 146.976562 692.4375 146.296875 C 692.496094 147.011719 692.652344 147.71875 692.953125 148.382812 C 693.320312 149.25 693.902344 150.023438 694.589844 150.675781 C 695.300781 151.320312 696.113281 151.839844 697.007812 152.144531 C 697.808594 152.4375 698.660156 152.589844 699.5 152.53125 C 699.40625 155.734375 698.914062 159.769531 697.3125 163.105469 C 694.117188 169.773438 692.214844 171.859375 691.507812 175.1875 C 690.582031 179.535156 693.613281 184.429688 696.890625 187.324219 C 696.101562 187.742188 695.261719 188.121094 694.429688 188.386719 C 693.394531 188.71875 692.371094 188.875 691.507812 188.691406 C 691.507812 188.691406 691.949219 189.234375 692.445312 189.824219 C 693.011719 190.488281 693.652344 191.210938 693.847656 191.257812 C 694.199219 191.355469 696.855469 191.257812 696.855469 191.257812 C 696.855469 191.257812 697.9375 191.808594 699.972656 191.300781 C 700.480469 191.171875 701.171875 190.964844 701.925781 190.722656 C 702.257812 190.617188 702.597656 190.507812 702.941406 190.398438 C 703.324219 190.269531 703.710938 190.136719 704.085938 190.007812 C 702.421875 189.042969 700.664062 187.65625 699.089844 186.023438 C 695.347656 182.136719 692.671875 176.910156 694.976562 172.855469 C 698.28125 167.039062 703.957031 151.878906 699.304688 147.050781 C 699.121094 146.859375 698.945312 146.652344 698.730469 146.496094 C 696.714844 145.039062 693.191406 144.367188 689.480469 144.113281 C 689.460938 144.121094 686.847656 144.71875 683.496094 145.382812 C 683.3125 145.421875 683.128906 145.460938 682.941406 145.496094 C 684.253906 147.757812 686.613281 153.707031 681.5625 161.890625 C 677.675781 168.175781 677.792969 172.042969 678.359375 175.394531 C 680.488281 187.890625 688.675781 186.578125 692.679688 187.730469 " fill-opacity="1" fill-rule="nonzero"/></svg>