<svg xmlns="http://www.w3.org/2000/svg" xmlns:xlink="http://www.w3.org/1999/xlink" width="500" zoomAndPan="magnify" viewBox="0 0 375 374.999991" height="500" preserveAspectRatio="xMidYMid meet" version="1.0"><defs><g/></defs><path fill="#f7c7ad" d="M 161.339844 353.921875 C 137.417969 349.359375 117.765625 341.902344 100.433594 330.816406 C 87.210938 322.355469 69.195312 304.695312 64.789062 295.875 C 58.519531 283.316406 62.777344 276.433594 73.382812 281.976562 C 75.371094 283.019531 82.957031 289.539062 90.242188 296.464844 C 108.128906 313.480469 122.113281 323.6875 138.207031 331.480469 C 159.875 341.964844 174.152344 345.097656 201.152344 345.285156 C 226.453125 345.464844 240.089844 342.929688 255.78125 335.144531 C 268.3125 328.929688 271.5 325.351562 271.542969 317.460938 C 271.683594 291.71875 311.0625 255.257812 338.726562 255.257812 C 346.597656 255.257812 348.578125 255.925781 352.59375 259.9375 C 366.28125 273.628906 360.492188 299.652344 338.753906 322.152344 C 321.722656 339.78125 303.558594 346.09375 285.875 340.53125 L 276.75 337.660156 L 258.277344 343.816406 C 248.121094 347.199219 235.578125 351.042969 230.414062 352.355469 C 216.988281 355.761719 175.859375 356.695312 161.339844 353.921875 Z M 318.507812 329.355469 C 332.746094 322.230469 350.964844 298.921875 350.964844 287.835938 C 350.964844 285.980469 348.808594 288.824219 346.054688 294.308594 C 339.027344 308.3125 323.597656 323.859375 310.847656 329.785156 C 302.523438 333.652344 301.621094 334.40625 306.269531 333.59375 C 309.457031 333.035156 314.964844 331.128906 318.507812 329.355469 Z M 191.21875 303.691406 C 173.570312 302.101562 156.632812 296.660156 142.878906 288.15625 C 134.683594 283.09375 137.171875 282.710938 147.515625 287.441406 C 169.554688 297.527344 202.054688 300.382812 225.15625 294.257812 C 235.460938 291.527344 257.828125 281.574219 266.539062 275.839844 C 268.816406 274.34375 267.328125 276.179688 263.230469 279.917969 C 245.988281 295.644531 215.109375 305.839844 191.21875 303.691406 Z M 339.523438 134.558594 C 337.785156 132.820312 330.847656 122.949219 324.109375 112.625 C 317.371094 102.300781 307.574219 89.234375 302.335938 83.589844 C 274.738281 53.828125 236.414062 36.808594 197.015625 36.820312 C 171.480469 36.828125 160.617188 40.707031 160.578125 49.832031 C 160.558594 53.753906 159.175781 54.625 144.574219 59.910156 C 125.761719 66.714844 108.535156 77.566406 93.113281 92.320312 C 82.132812 102.824219 79.480469 104.566406 79.480469 101.28125 C 79.480469 97.871094 107.390625 72.121094 118.03125 65.714844 C 124.078125 62.074219 129.050781 58.160156 129.085938 57.023438 C 129.167969 54.070312 128.804688 54.203125 115.59375 61.988281 C 108.832031 65.976562 97.234375 75.339844 88.835938 83.589844 C 79.832031 92.441406 73.417969 97.558594 72.496094 96.636719 C 70.035156 94.175781 98.707031 66.460938 113.003906 57.472656 C 124.289062 50.378906 128.308594 46.675781 124.726562 46.675781 C 122.375 46.675781 104.714844 57.410156 96.035156 64.113281 C 91.027344 67.980469 82.117188 76.15625 76.234375 82.277344 C 63.597656 95.429688 60.597656 93.710938 72.421875 80.097656 C 81.773438 69.335938 95.519531 57.75 110.519531 47.984375 C 119.875 41.894531 123.160156 38.402344 119.527344 38.402344 C 117.335938 38.402344 99.167969 49.734375 89.867188 56.90625 C 85.109375 60.574219 76.367188 68.710938 70.445312 74.992188 C 64.523438 81.269531 58.890625 86.40625 57.933594 86.40625 C 52.199219 86.40625 76.667969 59.996094 95.140625 46.25 C 109.421875 35.621094 122.191406 28.65625 139.019531 22.324219 L 149.761719 18.28125 L 152.53125 21.695312 C 157.203125 27.46875 162.109375 28.28125 182.253906 26.621094 C 238.199219 22.007812 290.316406 42.0625 327.625 82.550781 C 346.003906 102.492188 357.035156 128.105469 350.199219 134.945312 C 346.570312 138.570312 343.421875 138.457031 339.523438 134.558594 Z M 127.488281 105.574219 C 134.777344 97.570312 150.582031 88.234375 164.472656 83.722656 C 183.265625 77.621094 207.300781 77.265625 225.15625 82.832031 C 236.820312 86.464844 255.929688 95.914062 254.503906 97.339844 C 254.144531 97.699219 249.09375 96.054688 243.273438 93.6875 C 208.109375 79.402344 164.335938 82.976562 135.347656 102.503906 C 124.28125 109.953125 123.0625 110.429688 127.488281 105.574219 Z M 127.488281 105.574219 " fill-opacity="1" fill-rule="nonzero"/><g fill="#f7c7ad" fill-opacity="1"><g transform="translate(30.695595, 208.151711)"><g><path d="M -6.828125 -39.203125 C -7.398438 -40.546875 -7.925781 -41.597656 -8.40625 -42.359375 C -8.894531 -43.128906 -9.445312 -43.671875 -10.0625 -43.984375 C -10.675781 -44.296875 -11.398438 -44.375 -12.234375 -44.21875 C -13.078125 -44.0625 -14.125 -43.765625 -15.375 -43.328125 L -16.3125 -45.515625 L 1.203125 -52.984375 L 2.140625 -50.796875 C 0.921875 -50.234375 -0.0195312 -49.691406 -0.6875 -49.171875 C -1.351562 -48.660156 -1.78125 -48.066406 -1.96875 -47.390625 C -2.164062 -46.722656 -2.140625 -45.921875 -1.890625 -44.984375 C -1.648438 -44.046875 -1.21875 -42.84375 -0.59375 -41.375 L 14.46875 -6.03125 C 16.539062 -1.175781 17.097656 2.945312 16.140625 6.34375 C 15.179688 9.738281 12.738281 12.273438 8.8125 13.953125 C 6.164062 15.078125 3.820312 15.472656 1.78125 15.140625 C -0.25 14.804688 -1.625 13.796875 -2.34375 12.109375 C -2.757812 11.109375 -2.816406 10.238281 -2.515625 9.5 C -2.222656 8.757812 -1.617188 8.191406 -0.703125 7.796875 C 0.0351562 7.484375 0.703125 7.414062 1.296875 7.59375 C 1.890625 7.78125 2.707031 8.285156 3.75 9.109375 C 4.914062 10.046875 5.832031 10.632812 6.5 10.875 C 7.175781 11.125 7.90625 11.085938 8.6875 10.765625 C 10.257812 10.085938 11.101562 8.71875 11.21875 6.65625 C 11.34375 4.601562 10.742188 2.023438 9.421875 -1.078125 Z M -6.828125 -39.203125 "/></g></g></g><g fill="#f7c7ad" fill-opacity="1"><g transform="translate(50.976402, 198.370515)"><g><path d="M 14.140625 -55.40625 C 17.648438 -56.476562 21.113281 -56.859375 24.53125 -56.546875 C 27.945312 -56.234375 31.097656 -55.335938 33.984375 -53.859375 C 36.878906 -52.378906 39.410156 -50.375 41.578125 -47.84375 C 43.753906 -45.320312 45.359375 -42.363281 46.390625 -38.96875 C 47.378906 -35.726562 47.65625 -32.488281 47.21875 -29.25 C 46.789062 -26.019531 45.773438 -23.015625 44.171875 -20.234375 C 42.566406 -17.453125 40.429688 -14.988281 37.765625 -12.84375 C 35.109375 -10.695312 32.039062 -9.097656 28.5625 -8.046875 C 25.082031 -6.984375 21.632812 -6.597656 18.21875 -6.890625 C 14.800781 -7.191406 11.65625 -8.046875 8.78125 -9.453125 C 5.90625 -10.867188 3.382812 -12.800781 1.21875 -15.25 C -0.9375 -17.695312 -2.507812 -20.539062 -3.5 -23.78125 C -4.53125 -27.175781 -4.851562 -30.523438 -4.46875 -33.828125 C -4.082031 -37.128906 -3.097656 -40.203125 -1.515625 -43.046875 C 0.0664062 -45.890625 2.191406 -48.390625 4.859375 -50.546875 C 7.523438 -52.710938 10.617188 -54.332031 14.140625 -55.40625 Z M 27.546875 -11.34375 C 30.171875 -12.144531 32.394531 -13.320312 34.21875 -14.875 C 36.050781 -16.4375 37.453125 -18.300781 38.421875 -20.46875 C 39.398438 -22.644531 39.910156 -25.085938 39.953125 -27.796875 C 40.003906 -30.503906 39.566406 -33.378906 38.640625 -36.421875 C 37.671875 -39.609375 36.394531 -42.367188 34.8125 -44.703125 C 33.226562 -47.035156 31.421875 -48.882812 29.390625 -50.25 C 27.359375 -51.625 25.128906 -52.476562 22.703125 -52.8125 C 20.285156 -53.15625 17.765625 -52.925781 15.140625 -52.125 C 12.492188 -51.320312 10.257812 -50.101562 8.4375 -48.46875 C 6.625 -46.84375 5.25 -44.894531 4.3125 -42.625 C 3.382812 -40.351562 2.910156 -37.804688 2.890625 -34.984375 C 2.878906 -32.160156 3.359375 -29.15625 4.328125 -25.96875 C 5.253906 -22.925781 6.492188 -20.296875 8.046875 -18.078125 C 9.597656 -15.859375 11.378906 -14.113281 13.390625 -12.84375 C 15.398438 -11.582031 17.597656 -10.816406 19.984375 -10.546875 C 22.378906 -10.273438 24.898438 -10.539062 27.546875 -11.34375 Z M 27.546875 -11.34375 "/></g></g></g><g fill="#f7c7ad" fill-opacity="1"><g transform="translate(104.999252, 182.106026)"><g><path d="M 27.46875 -22.078125 L 10.9375 -19.453125 C 10.5 -17.648438 10.132812 -16.054688 9.84375 -14.671875 C 9.5625 -13.296875 9.335938 -12.109375 9.171875 -11.109375 C 9.015625 -10.117188 8.925781 -9.28125 8.90625 -8.59375 C 8.894531 -7.90625 8.921875 -7.359375 8.984375 -6.953125 C 9.171875 -5.796875 9.664062 -5.054688 10.46875 -4.734375 C 11.28125 -4.421875 12.554688 -4.40625 14.296875 -4.6875 L 14.671875 -2.34375 L -0.375 0.0625 L -0.75 -2.28125 C 0.175781 -2.5625 0.960938 -2.859375 1.609375 -3.171875 C 2.265625 -3.492188 2.816406 -3.878906 3.265625 -4.328125 C 3.722656 -4.785156 4.097656 -5.34375 4.390625 -6 C 4.691406 -6.65625 4.960938 -7.445312 5.203125 -8.375 L 14.875 -51.234375 L 17.546875 -51.65625 L 37.15625 -19 C 38.46875 -16.832031 39.582031 -15.113281 40.5 -13.84375 C 41.425781 -12.582031 42.273438 -11.65625 43.046875 -11.0625 C 43.828125 -10.46875 44.613281 -10.125 45.40625 -10.03125 C 46.195312 -9.9375 47.128906 -9.976562 48.203125 -10.15625 L 48.59375 -7.75 L 28.421875 -4.53125 L 28.03125 -6.9375 C 30.207031 -7.28125 31.675781 -7.726562 32.4375 -8.28125 C 33.207031 -8.832031 33.515625 -9.582031 33.359375 -10.53125 C 33.296875 -10.9375 33.210938 -11.3125 33.109375 -11.65625 C 33.015625 -12 32.882812 -12.367188 32.71875 -12.765625 C 32.550781 -13.171875 32.332031 -13.613281 32.0625 -14.09375 C 31.789062 -14.570312 31.457031 -15.140625 31.0625 -15.796875 Z M 11.671875 -22.75 L 25.796875 -25 L 16 -42.15625 Z M 11.671875 -22.75 "/></g></g></g><g fill="#f7c7ad" fill-opacity="1"><g transform="translate(149.900739, 174.366915)"><g><path d="M 28.71875 -49.484375 C 32.394531 -49.554688 35.832031 -48.976562 39.03125 -47.75 C 42.226562 -46.519531 45.019531 -44.796875 47.40625 -42.578125 C 49.789062 -40.367188 51.679688 -37.75 53.078125 -34.71875 C 54.484375 -31.6875 55.222656 -28.394531 55.296875 -24.84375 C 55.378906 -20.90625 54.644531 -17.300781 53.09375 -14.03125 C 51.550781 -10.757812 49.46875 -7.925781 46.84375 -5.53125 C 45.113281 -3.988281 43.171875 -2.679688 41.015625 -1.609375 C 38.867188 -0.546875 36.625 0.441406 34.28125 1.359375 C 33.15625 1.859375 32.066406 2.367188 31.015625 2.890625 C 29.960938 3.410156 29 4.015625 28.125 4.703125 L 28.125 4.953125 C 28.375 4.898438 28.71875 4.859375 29.15625 4.828125 C 29.601562 4.796875 29.992188 4.78125 30.328125 4.78125 C 32.203125 4.738281 33.957031 4.941406 35.59375 5.390625 C 37.226562 5.835938 38.820312 6.347656 40.375 6.921875 C 41.9375 7.503906 43.492188 8.019531 45.046875 8.46875 C 46.609375 8.914062 48.25 9.117188 49.96875 9.078125 C 51.925781 9.035156 53.398438 8.585938 54.390625 7.734375 C 55.378906 6.878906 56.164062 5.421875 56.75 3.359375 L 58.3125 3.328125 C 58.40625 3.703125 58.472656 4.117188 58.515625 4.578125 C 58.566406 5.035156 58.597656 5.492188 58.609375 5.953125 C 58.640625 7.296875 58.382812 8.523438 57.84375 9.640625 C 57.300781 10.753906 56.546875 11.726562 55.578125 12.5625 C 54.609375 13.40625 53.460938 14.066406 52.140625 14.546875 C 50.816406 15.035156 49.378906 15.296875 47.828125 15.328125 C 45.484375 15.378906 43.3125 14.976562 41.3125 14.125 C 39.3125 13.269531 37.414062 12.320312 35.625 11.28125 C 33.832031 10.25 32.109375 9.300781 30.453125 8.4375 C 28.804688 7.570312 27.191406 7.15625 25.609375 7.1875 C 24.523438 7.207031 23.648438 7.4375 22.984375 7.875 C 22.328125 8.3125 21.734375 8.796875 21.203125 9.328125 C 20.671875 9.859375 20.164062 10.335938 19.6875 10.765625 C 19.21875 11.191406 18.625 11.410156 17.90625 11.421875 C 16.695312 11.441406 16.082031 10.929688 16.0625 9.890625 C 16.0625 9.597656 16.097656 9.347656 16.171875 9.140625 C 16.253906 8.929688 16.425781 8.6875 16.6875 8.40625 C 16.957031 8.132812 17.359375 7.8125 17.890625 7.4375 C 18.429688 7.070312 19.175781 6.609375 20.125 6.046875 L 28.171875 1.234375 C 24.660156 1.179688 21.390625 0.507812 18.359375 -0.78125 C 15.328125 -2.070312 12.695312 -3.835938 10.46875 -6.078125 C 8.25 -8.316406 6.492188 -10.9375 5.203125 -13.9375 C 3.910156 -16.945312 3.226562 -20.1875 3.15625 -23.65625 C 3.082031 -27.25 3.679688 -30.597656 4.953125 -33.703125 C 6.222656 -36.816406 8.003906 -39.523438 10.296875 -41.828125 C 12.597656 -44.140625 15.320312 -45.972656 18.46875 -47.328125 C 21.625 -48.679688 25.039062 -49.398438 28.71875 -49.484375 Z M 29.6875 -1.859375 C 32.4375 -1.910156 34.894531 -2.484375 37.0625 -3.578125 C 39.238281 -4.671875 41.09375 -6.203125 42.625 -8.171875 C 44.15625 -10.148438 45.304688 -12.515625 46.078125 -15.265625 C 46.859375 -18.023438 47.210938 -21.117188 47.140625 -24.546875 C 47.078125 -27.878906 46.597656 -30.882812 45.703125 -33.5625 C 44.816406 -36.238281 43.582031 -38.507812 42 -40.375 C 40.414062 -42.25 38.503906 -43.675781 36.265625 -44.65625 C 34.035156 -45.632812 31.546875 -46.097656 28.796875 -46.046875 C 26.035156 -45.984375 23.554688 -45.414062 21.359375 -44.34375 C 19.171875 -43.28125 17.320312 -41.78125 15.8125 -39.84375 C 14.300781 -37.914062 13.15625 -35.59375 12.375 -32.875 C 11.59375 -30.164062 11.234375 -27.144531 11.296875 -23.8125 C 11.367188 -20.382812 11.851562 -17.3125 12.75 -14.59375 C 13.644531 -11.875 14.882812 -9.554688 16.46875 -7.640625 C 18.050781 -5.734375 19.957031 -4.273438 22.1875 -3.265625 C 24.425781 -2.265625 26.925781 -1.796875 29.6875 -1.859375 Z M 29.6875 -1.859375 "/></g></g></g><g fill="#f7c7ad" fill-opacity="1"><g transform="translate(206.30291, 173.198696)"><g><path d="M 47.328125 -13.65625 C 46.921875 -10.382812 46.238281 -7.546875 45.28125 -5.140625 C 44.320312 -2.734375 43.019531 -0.789062 41.375 0.6875 C 39.738281 2.175781 37.726562 3.203125 35.34375 3.765625 C 32.957031 4.328125 30.148438 4.40625 26.921875 4 C 23.847656 3.613281 21.207031 2.976562 19 2.09375 C 16.789062 1.21875 15.007812 -0.0078125 13.65625 -1.59375 C 12.300781 -3.175781 11.390625 -5.132812 10.921875 -7.46875 C 10.460938 -9.800781 10.4375 -12.609375 10.84375 -15.890625 L 12.890625 -32.296875 C 13.273438 -35.367188 13.5 -37.742188 13.5625 -39.421875 C 13.625 -41.109375 13.347656 -42.390625 12.734375 -43.265625 C 12.304688 -43.867188 11.679688 -44.316406 10.859375 -44.609375 C 10.035156 -44.898438 8.914062 -45.132812 7.5 -45.3125 L 7.796875 -47.671875 L 29 -45.015625 L 28.703125 -42.65625 C 27.304688 -42.832031 26.160156 -42.890625 25.265625 -42.828125 C 24.378906 -42.765625 23.640625 -42.4375 23.046875 -41.84375 C 22.378906 -41.175781 21.859375 -40.03125 21.484375 -38.40625 C 21.109375 -36.789062 20.726562 -34.445312 20.34375 -31.375 L 18.234375 -14.46875 C 17.972656 -12.351562 17.953125 -10.445312 18.171875 -8.75 C 18.398438 -7.0625 18.941406 -5.582031 19.796875 -4.3125 C 20.660156 -3.050781 21.851562 -2.03125 23.375 -1.25 C 24.894531 -0.46875 26.820312 0.0664062 29.15625 0.359375 C 33.300781 0.878906 36.550781 0.117188 38.90625 -1.921875 C 41.257812 -3.960938 42.71875 -7.222656 43.28125 -11.703125 L 45.15625 -26.6875 C 45.613281 -30.375 45.816406 -33.1875 45.765625 -35.125 C 45.722656 -37.070312 45.359375 -38.5 44.671875 -39.40625 C 44.148438 -40.007812 43.460938 -40.4375 42.609375 -40.6875 C 41.765625 -40.945312 40.703125 -41.15625 39.421875 -41.3125 L 39.71875 -43.671875 L 57.75 -41.421875 L 57.453125 -39.0625 C 56.128906 -39.21875 55.023438 -39.25 54.140625 -39.15625 C 53.265625 -39.0625 52.535156 -38.6875 51.953125 -38.03125 C 51.222656 -37.238281 50.640625 -35.929688 50.203125 -34.109375 C 49.765625 -32.285156 49.332031 -29.65625 48.90625 -26.21875 Z M 47.328125 -13.65625 "/></g></g></g><g fill="#f7c7ad" fill-opacity="1"><g transform="translate(257.60958, 180.225688)"><g><path d="M 18.53125 -7.890625 C 18.0625 -5.859375 17.773438 -4.226562 17.671875 -3 C 17.566406 -1.78125 17.671875 -0.789062 17.984375 -0.03125 C 18.296875 0.71875 18.867188 1.296875 19.703125 1.703125 C 20.535156 2.117188 21.65625 2.515625 23.0625 2.890625 L 22.53125 5.203125 L 2.75 0.640625 L 3.28125 -1.671875 C 4.71875 -1.390625 5.894531 -1.257812 6.8125 -1.28125 C 7.738281 -1.3125 8.519531 -1.570312 9.15625 -2.0625 C 9.789062 -2.5625 10.316406 -3.351562 10.734375 -4.4375 C 11.160156 -5.519531 11.59375 -7.015625 12.03125 -8.921875 L 17.75 -33.734375 C 18.144531 -35.441406 18.398438 -36.875 18.515625 -38.03125 C 18.628906 -39.1875 18.546875 -40.132812 18.265625 -40.875 C 17.992188 -41.625 17.476562 -42.226562 16.71875 -42.6875 C 15.96875 -43.144531 14.953125 -43.5625 13.671875 -43.9375 L 14.203125 -46.25 L 32.765625 -41.96875 L 32.234375 -39.65625 C 30.921875 -39.914062 29.832031 -39.992188 28.96875 -39.890625 C 28.101562 -39.785156 27.382812 -39.445312 26.8125 -38.875 C 26.238281 -38.300781 25.738281 -37.441406 25.3125 -36.296875 C 24.894531 -35.160156 24.476562 -33.671875 24.0625 -31.828125 Z M 18.53125 -7.890625 "/></g></g></g><g fill="#f7c7ad" fill-opacity="1"><g transform="translate(280.897811, 184.133033)"><g><path d="M 36.234375 1.1875 L 64.171875 -28.109375 L 77.375 -23.34375 L 76.5625 -21.109375 C 75.289062 -21.515625 74.222656 -21.71875 73.359375 -21.71875 C 72.503906 -21.71875 71.75 -21.46875 71.09375 -20.96875 C 70.4375 -20.46875 69.832031 -19.675781 69.28125 -18.59375 C 68.738281 -17.507812 68.144531 -16.082031 67.5 -14.3125 L 59.140625 8.796875 C 58.429688 10.753906 57.945312 12.332031 57.6875 13.53125 C 57.4375 14.726562 57.425781 15.722656 57.65625 16.515625 C 57.882812 17.316406 58.382812 17.96875 59.15625 18.46875 C 59.925781 18.96875 60.992188 19.488281 62.359375 20.03125 L 61.546875 22.265625 L 42.453125 15.359375 L 43.265625 13.125 C 44.640625 13.570312 45.789062 13.835938 46.71875 13.921875 C 47.644531 14.015625 48.445312 13.851562 49.125 13.4375 C 49.8125 13.019531 50.425781 12.296875 50.96875 11.265625 C 51.519531 10.242188 52.128906 8.816406 52.796875 6.984375 L 62.703125 -20.375 L 62.125 -20.59375 L 30.90625 11.859375 L 29.609375 11.390625 L 26.703125 -33.40625 L 26.46875 -33.484375 L 16.71875 -6.546875 C 16.007812 -4.585938 15.523438 -3.007812 15.265625 -1.8125 C 15.015625 -0.625 15 0.363281 15.21875 1.15625 C 15.4375 1.957031 15.929688 2.609375 16.703125 3.109375 C 17.472656 3.609375 18.539062 4.128906 19.90625 4.671875 L 19.09375 6.90625 L 2.65625 0.96875 L 3.46875 -1.265625 C 4.851562 -0.816406 6.003906 -0.546875 6.921875 -0.453125 C 7.847656 -0.367188 8.65625 -0.535156 9.34375 -0.953125 C 10.03125 -1.367188 10.644531 -2.085938 11.1875 -3.109375 C 11.738281 -4.140625 12.347656 -5.570312 13.015625 -7.40625 L 21.6875 -31.34375 C 22.28125 -33 22.703125 -34.390625 22.953125 -35.515625 C 23.210938 -36.648438 23.25 -37.609375 23.0625 -38.390625 C 22.882812 -39.171875 22.441406 -39.828125 21.734375 -40.359375 C 21.035156 -40.898438 20.078125 -41.441406 18.859375 -41.984375 L 19.671875 -44.21875 L 33.765625 -39.125 L 36 1.09375 Z M 36.234375 1.1875 "/></g></g></g><g fill="#f7c7ad" fill-opacity="1"><g transform="translate(111.183366, 232.279375)"><g><path d="M 8.640625 -17.640625 C 11.503906 -17.640625 13.691406 -16.898438 15.203125 -15.421875 C 16.710938 -13.941406 17.46875 -11.742188 17.46875 -8.828125 C 17.46875 -5.910156 16.710938 -3.707031 15.203125 -2.21875 C 13.691406 -0.738281 11.503906 0 8.640625 0 L 2.296875 0 L 2.296875 -17.640625 Z M 8.4375 -2.9375 C 10.257812 -2.9375 11.617188 -3.398438 12.515625 -4.328125 C 13.421875 -5.253906 13.875 -6.753906 13.875 -8.828125 C 13.875 -10.890625 13.421875 -12.382812 12.515625 -13.3125 C 11.617188 -14.25 10.257812 -14.71875 8.4375 -14.71875 L 5.78125 -14.71875 L 5.78125 -2.9375 Z M 8.4375 -2.9375 "/></g></g></g><g fill="#f7c7ad" fill-opacity="1"><g transform="translate(140.840838, 232.279375)"><g><path d="M 5.78125 -7.75 L 5.78125 -2.921875 L 14.203125 -2.921875 L 14.203125 0 L 2.296875 0 L 2.296875 -17.640625 L 14.015625 -17.640625 L 14.015625 -14.71875 L 5.78125 -14.71875 L 5.78125 -10.59375 L 12.96875 -10.59375 L 12.96875 -7.75 Z M 5.78125 -7.75 "/></g></g></g><g fill="#f7c7ad" fill-opacity="1"><g transform="translate(166.807212, 232.279375)"><g><path d="M 5.78125 -17.640625 L 5.78125 -2.921875 L 13.71875 -2.921875 L 13.71875 0 L 2.296875 0 L 2.296875 -17.640625 Z M 5.78125 -17.640625 "/></g></g></g><g fill="#f7c7ad" fill-opacity="1"><g transform="translate(191.89303, 232.279375)"><g><path d="M 5.78125 0 L 2.296875 0 L 2.296875 -17.640625 L 5.78125 -17.640625 Z M 5.78125 0 "/></g></g></g><g fill="#f7c7ad" fill-opacity="1"><g transform="translate(210.77877, 232.279375)"><g><path d="M 10.484375 0 L 6.28125 0 L 0.3125 -17.640625 L 4.015625 -17.640625 L 8.296875 -4.484375 L 8.609375 -4.484375 L 12.828125 -17.640625 L 16.4375 -17.640625 Z M 10.484375 0 "/></g></g></g><g fill="#f7c7ad" fill-opacity="1"><g transform="translate(238.32532, 232.279375)"><g><path d="M 5.78125 -7.75 L 5.78125 -2.921875 L 14.203125 -2.921875 L 14.203125 0 L 2.296875 0 L 2.296875 -17.640625 L 14.015625 -17.640625 L 14.015625 -14.71875 L 5.78125 -14.71875 L 5.78125 -10.59375 L 12.96875 -10.59375 L 12.96875 -7.75 Z M 5.78125 -7.75 "/></g></g></g><g fill="#f7c7ad" fill-opacity="1"><g transform="translate(264.291694, 232.279375)"><g><path d="M 2.296875 0 L 2.296875 -17.640625 L 9.375 -17.640625 C 11.207031 -17.640625 12.585938 -17.21875 13.515625 -16.375 C 14.441406 -15.539062 14.90625 -14.382812 14.90625 -12.90625 C 14.90625 -11.832031 14.632812 -10.953125 14.09375 -10.265625 C 13.550781 -9.585938 12.738281 -9.066406 11.65625 -8.703125 L 11.65625 -8.453125 C 12.207031 -8.210938 12.65625 -7.851562 13 -7.375 C 13.34375 -6.894531 13.671875 -6.191406 13.984375 -5.265625 L 15.734375 0 L 12.15625 0 L 10.421875 -5.28125 C 10.242188 -5.8125 10.046875 -6.222656 9.828125 -6.515625 C 9.609375 -6.804688 9.328125 -7.015625 8.984375 -7.140625 C 8.640625 -7.273438 8.195312 -7.34375 7.65625 -7.34375 L 5.78125 -7.34375 L 5.78125 0 Z M 8.953125 -10.109375 C 10.640625 -10.109375 11.484375 -10.898438 11.484375 -12.484375 C 11.484375 -14.078125 10.640625 -14.875 8.953125 -14.875 L 5.78125 -14.875 L 5.78125 -10.109375 Z M 8.953125 -10.109375 "/></g></g></g><g fill="#f7c7ad" fill-opacity="1"><g transform="translate(291.584933, 232.279375)"><g><path d="M 9.671875 0 L 6.1875 0 L 6.1875 -6.921875 L 0.078125 -17.640625 L 3.828125 -17.640625 L 7.859375 -10.703125 L 8.15625 -10.703125 L 12.109375 -17.640625 L 15.765625 -17.640625 L 9.671875 -6.921875 Z M 9.671875 0 "/></g></g></g></svg>